<?xml version="1.0" encoding="utf-8" standalone="no"?>
<!DOCTYPE svg PUBLIC "-//W3C//DTD SVG 1.1//EN"
  "http://www.w3.org/Graphics/SVG/1.1/DTD/svg11.dtd">
<svg xmlns:xlink="http://www.w3.org/1999/xlink" width="478.378906pt" height="262.19625pt" viewBox="0 0 478.378906 262.19625" xmlns="http://www.w3.org/2000/svg" version="1.1">
 <metadata>
  <rdf:RDF xmlns:dc="http://purl.org/dc/elements/1.1/" xmlns:cc="http://creativecommons.org/ns#" xmlns:rdf="http://www.w3.org/1999/02/22-rdf-syntax-ns#">
   <cc:Work>
    <dc:type rdf:resource="http://purl.org/dc/dcmitype/StillImage"/>
    <dc:date>2022-03-21T00:29:12.219349</dc:date>
    <dc:format>image/svg+xml</dc:format>
    <dc:creator>
     <cc:Agent>
      <dc:title>Matplotlib v3.5.1, https://matplotlib.org/</dc:title>
     </cc:Agent>
    </dc:creator>
   </cc:Work>
  </rdf:RDF>
 </metadata>
 <defs>
  <style type="text/css">*{stroke-linejoin: round; stroke-linecap: butt}</style>
 </defs>
 <g id="figure_1">
  <g id="patch_1">
   <path d="M 0 262.19625 
L 478.378906 262.19625 
L 478.378906 0 
L 0 0 
z
" style="fill: #ffffff"/>
  </g>
  <g id="axes_1">
   <g id="patch_2">
    <path d="M 62.86875 224.64 
L 453.46875 224.64 
L 453.46875 7.2 
L 62.86875 7.2 
z
" style="fill: #ffffff"/>
   </g>
   <g id="matplotlib.axis_1">
    <g id="xtick_1">
     <g id="line2d_1">
      <path d="M 81.46875 224.64 
L 81.46875 7.2 
" clip-path="url(#p158a773f6f)" style="fill: none; stroke: #cccccc; stroke-width: 0.8; stroke-linecap: round"/>
     </g>
     <g id="text_1">
      <!-- 2020-1 -->
      <g style="fill: #262626" transform="translate(63.758594 239.238437)scale(0.1 -0.1)">
       <defs>
        <path id="DejaVuSans-32" d="M 1228 531 
L 3431 531 
L 3431 0 
L 469 0 
L 469 531 
Q 828 903 1448 1529 
Q 2069 2156 2228 2338 
Q 2531 2678 2651 2914 
Q 2772 3150 2772 3378 
Q 2772 3750 2511 3984 
Q 2250 4219 1831 4219 
Q 1534 4219 1204 4116 
Q 875 4013 500 3803 
L 500 4441 
Q 881 4594 1212 4672 
Q 1544 4750 1819 4750 
Q 2544 4750 2975 4387 
Q 3406 4025 3406 3419 
Q 3406 3131 3298 2873 
Q 3191 2616 2906 2266 
Q 2828 2175 2409 1742 
Q 1991 1309 1228 531 
z
" transform="scale(0.015625)"/>
        <path id="DejaVuSans-30" d="M 2034 4250 
Q 1547 4250 1301 3770 
Q 1056 3291 1056 2328 
Q 1056 1369 1301 889 
Q 1547 409 2034 409 
Q 2525 409 2770 889 
Q 3016 1369 3016 2328 
Q 3016 3291 2770 3770 
Q 2525 4250 2034 4250 
z
M 2034 4750 
Q 2819 4750 3233 4129 
Q 3647 3509 3647 2328 
Q 3647 1150 3233 529 
Q 2819 -91 2034 -91 
Q 1250 -91 836 529 
Q 422 1150 422 2328 
Q 422 3509 836 4129 
Q 1250 4750 2034 4750 
z
" transform="scale(0.015625)"/>
        <path id="DejaVuSans-2d" d="M 313 2009 
L 1997 2009 
L 1997 1497 
L 313 1497 
L 313 2009 
z
" transform="scale(0.015625)"/>
        <path id="DejaVuSans-31" d="M 794 531 
L 1825 531 
L 1825 4091 
L 703 3866 
L 703 4441 
L 1819 4666 
L 2450 4666 
L 2450 531 
L 3481 531 
L 3481 0 
L 794 0 
L 794 531 
z
" transform="scale(0.015625)"/>
       </defs>
       <use xlink:href="#DejaVuSans-32"/>
       <use xlink:href="#DejaVuSans-30" x="63.623047"/>
       <use xlink:href="#DejaVuSans-32" x="127.246094"/>
       <use xlink:href="#DejaVuSans-30" x="190.869141"/>
       <use xlink:href="#DejaVuSans-2d" x="254.492188"/>
       <use xlink:href="#DejaVuSans-31" x="290.576172"/>
      </g>
     </g>
    </g>
    <g id="xtick_2">
     <g id="line2d_2">
      <path d="M 174.46875 224.64 
L 174.46875 7.2 
" clip-path="url(#p158a773f6f)" style="fill: none; stroke: #cccccc; stroke-width: 0.8; stroke-linecap: round"/>
     </g>
     <g id="text_2">
      <!-- 2020-6 -->
      <g style="fill: #262626" transform="translate(156.758594 239.238437)scale(0.1 -0.1)">
       <defs>
        <path id="DejaVuSans-36" d="M 2113 2584 
Q 1688 2584 1439 2293 
Q 1191 2003 1191 1497 
Q 1191 994 1439 701 
Q 1688 409 2113 409 
Q 2538 409 2786 701 
Q 3034 994 3034 1497 
Q 3034 2003 2786 2293 
Q 2538 2584 2113 2584 
z
M 3366 4563 
L 3366 3988 
Q 3128 4100 2886 4159 
Q 2644 4219 2406 4219 
Q 1781 4219 1451 3797 
Q 1122 3375 1075 2522 
Q 1259 2794 1537 2939 
Q 1816 3084 2150 3084 
Q 2853 3084 3261 2657 
Q 3669 2231 3669 1497 
Q 3669 778 3244 343 
Q 2819 -91 2113 -91 
Q 1303 -91 875 529 
Q 447 1150 447 2328 
Q 447 3434 972 4092 
Q 1497 4750 2381 4750 
Q 2619 4750 2861 4703 
Q 3103 4656 3366 4563 
z
" transform="scale(0.015625)"/>
       </defs>
       <use xlink:href="#DejaVuSans-32"/>
       <use xlink:href="#DejaVuSans-30" x="63.623047"/>
       <use xlink:href="#DejaVuSans-32" x="127.246094"/>
       <use xlink:href="#DejaVuSans-30" x="190.869141"/>
       <use xlink:href="#DejaVuSans-2d" x="254.492188"/>
       <use xlink:href="#DejaVuSans-36" x="290.576172"/>
      </g>
     </g>
    </g>
    <g id="xtick_3">
     <g id="line2d_3">
      <path d="M 267.46875 224.64 
L 267.46875 7.2 
" clip-path="url(#p158a773f6f)" style="fill: none; stroke: #cccccc; stroke-width: 0.8; stroke-linecap: round"/>
     </g>
     <g id="text_3">
      <!-- 2021-1 -->
      <g style="fill: #262626" transform="translate(249.758594 239.238437)scale(0.1 -0.1)">
       <use xlink:href="#DejaVuSans-32"/>
       <use xlink:href="#DejaVuSans-30" x="63.623047"/>
       <use xlink:href="#DejaVuSans-32" x="127.246094"/>
       <use xlink:href="#DejaVuSans-31" x="190.869141"/>
       <use xlink:href="#DejaVuSans-2d" x="254.492188"/>
       <use xlink:href="#DejaVuSans-31" x="290.576172"/>
      </g>
     </g>
    </g>
    <g id="xtick_4">
     <g id="line2d_4">
      <path d="M 360.46875 224.64 
L 360.46875 7.2 
" clip-path="url(#p158a773f6f)" style="fill: none; stroke: #cccccc; stroke-width: 0.8; stroke-linecap: round"/>
     </g>
     <g id="text_4">
      <!-- 2021-6 -->
      <g style="fill: #262626" transform="translate(342.758594 239.238437)scale(0.1 -0.1)">
       <use xlink:href="#DejaVuSans-32"/>
       <use xlink:href="#DejaVuSans-30" x="63.623047"/>
       <use xlink:href="#DejaVuSans-32" x="127.246094"/>
       <use xlink:href="#DejaVuSans-31" x="190.869141"/>
       <use xlink:href="#DejaVuSans-2d" x="254.492188"/>
       <use xlink:href="#DejaVuSans-36" x="290.576172"/>
      </g>
     </g>
    </g>
    <g id="xtick_5">
     <g id="line2d_5">
      <path d="M 453.46875 224.64 
L 453.46875 7.2 
" clip-path="url(#p158a773f6f)" style="fill: none; stroke: #cccccc; stroke-width: 0.8; stroke-linecap: round"/>
     </g>
     <g id="text_5">
      <!-- 2022-1 -->
      <g style="fill: #262626" transform="translate(435.758594 239.238437)scale(0.1 -0.1)">
       <use xlink:href="#DejaVuSans-32"/>
       <use xlink:href="#DejaVuSans-30" x="63.623047"/>
       <use xlink:href="#DejaVuSans-32" x="127.246094"/>
       <use xlink:href="#DejaVuSans-32" x="190.869141"/>
       <use xlink:href="#DejaVuSans-2d" x="254.492188"/>
       <use xlink:href="#DejaVuSans-31" x="290.576172"/>
      </g>
     </g>
    </g>
    <g id="text_6">
     <!-- Collection Date -->
     <g style="fill: #262626" transform="translate(219.896875 252.916562)scale(0.1 -0.1)">
      <defs>
       <path id="DejaVuSans-43" d="M 4122 4306 
L 4122 3641 
Q 3803 3938 3442 4084 
Q 3081 4231 2675 4231 
Q 1875 4231 1450 3742 
Q 1025 3253 1025 2328 
Q 1025 1406 1450 917 
Q 1875 428 2675 428 
Q 3081 428 3442 575 
Q 3803 722 4122 1019 
L 4122 359 
Q 3791 134 3420 21 
Q 3050 -91 2638 -91 
Q 1578 -91 968 557 
Q 359 1206 359 2328 
Q 359 3453 968 4101 
Q 1578 4750 2638 4750 
Q 3056 4750 3426 4639 
Q 3797 4528 4122 4306 
z
" transform="scale(0.015625)"/>
       <path id="DejaVuSans-6f" d="M 1959 3097 
Q 1497 3097 1228 2736 
Q 959 2375 959 1747 
Q 959 1119 1226 758 
Q 1494 397 1959 397 
Q 2419 397 2687 759 
Q 2956 1122 2956 1747 
Q 2956 2369 2687 2733 
Q 2419 3097 1959 3097 
z
M 1959 3584 
Q 2709 3584 3137 3096 
Q 3566 2609 3566 1747 
Q 3566 888 3137 398 
Q 2709 -91 1959 -91 
Q 1206 -91 779 398 
Q 353 888 353 1747 
Q 353 2609 779 3096 
Q 1206 3584 1959 3584 
z
" transform="scale(0.015625)"/>
       <path id="DejaVuSans-6c" d="M 603 4863 
L 1178 4863 
L 1178 0 
L 603 0 
L 603 4863 
z
" transform="scale(0.015625)"/>
       <path id="DejaVuSans-65" d="M 3597 1894 
L 3597 1613 
L 953 1613 
Q 991 1019 1311 708 
Q 1631 397 2203 397 
Q 2534 397 2845 478 
Q 3156 559 3463 722 
L 3463 178 
Q 3153 47 2828 -22 
Q 2503 -91 2169 -91 
Q 1331 -91 842 396 
Q 353 884 353 1716 
Q 353 2575 817 3079 
Q 1281 3584 2069 3584 
Q 2775 3584 3186 3129 
Q 3597 2675 3597 1894 
z
M 3022 2063 
Q 3016 2534 2758 2815 
Q 2500 3097 2075 3097 
Q 1594 3097 1305 2825 
Q 1016 2553 972 2059 
L 3022 2063 
z
" transform="scale(0.015625)"/>
       <path id="DejaVuSans-63" d="M 3122 3366 
L 3122 2828 
Q 2878 2963 2633 3030 
Q 2388 3097 2138 3097 
Q 1578 3097 1268 2742 
Q 959 2388 959 1747 
Q 959 1106 1268 751 
Q 1578 397 2138 397 
Q 2388 397 2633 464 
Q 2878 531 3122 666 
L 3122 134 
Q 2881 22 2623 -34 
Q 2366 -91 2075 -91 
Q 1284 -91 818 406 
Q 353 903 353 1747 
Q 353 2603 823 3093 
Q 1294 3584 2113 3584 
Q 2378 3584 2631 3529 
Q 2884 3475 3122 3366 
z
" transform="scale(0.015625)"/>
       <path id="DejaVuSans-74" d="M 1172 4494 
L 1172 3500 
L 2356 3500 
L 2356 3053 
L 1172 3053 
L 1172 1153 
Q 1172 725 1289 603 
Q 1406 481 1766 481 
L 2356 481 
L 2356 0 
L 1766 0 
Q 1100 0 847 248 
Q 594 497 594 1153 
L 594 3053 
L 172 3053 
L 172 3500 
L 594 3500 
L 594 4494 
L 1172 4494 
z
" transform="scale(0.015625)"/>
       <path id="DejaVuSans-69" d="M 603 3500 
L 1178 3500 
L 1178 0 
L 603 0 
L 603 3500 
z
M 603 4863 
L 1178 4863 
L 1178 4134 
L 603 4134 
L 603 4863 
z
" transform="scale(0.015625)"/>
       <path id="DejaVuSans-6e" d="M 3513 2113 
L 3513 0 
L 2938 0 
L 2938 2094 
Q 2938 2591 2744 2837 
Q 2550 3084 2163 3084 
Q 1697 3084 1428 2787 
Q 1159 2491 1159 1978 
L 1159 0 
L 581 0 
L 581 3500 
L 1159 3500 
L 1159 2956 
Q 1366 3272 1645 3428 
Q 1925 3584 2291 3584 
Q 2894 3584 3203 3211 
Q 3513 2838 3513 2113 
z
" transform="scale(0.015625)"/>
       <path id="DejaVuSans-20" transform="scale(0.015625)"/>
       <path id="DejaVuSans-44" d="M 1259 4147 
L 1259 519 
L 2022 519 
Q 2988 519 3436 956 
Q 3884 1394 3884 2338 
Q 3884 3275 3436 3711 
Q 2988 4147 2022 4147 
L 1259 4147 
z
M 628 4666 
L 1925 4666 
Q 3281 4666 3915 4102 
Q 4550 3538 4550 2338 
Q 4550 1131 3912 565 
Q 3275 0 1925 0 
L 628 0 
L 628 4666 
z
" transform="scale(0.015625)"/>
       <path id="DejaVuSans-61" d="M 2194 1759 
Q 1497 1759 1228 1600 
Q 959 1441 959 1056 
Q 959 750 1161 570 
Q 1363 391 1709 391 
Q 2188 391 2477 730 
Q 2766 1069 2766 1631 
L 2766 1759 
L 2194 1759 
z
M 3341 1997 
L 3341 0 
L 2766 0 
L 2766 531 
Q 2569 213 2275 61 
Q 1981 -91 1556 -91 
Q 1019 -91 701 211 
Q 384 513 384 1019 
Q 384 1609 779 1909 
Q 1175 2209 1959 2209 
L 2766 2209 
L 2766 2266 
Q 2766 2663 2505 2880 
Q 2244 3097 1772 3097 
Q 1472 3097 1187 3025 
Q 903 2953 641 2809 
L 641 3341 
Q 956 3463 1253 3523 
Q 1550 3584 1831 3584 
Q 2591 3584 2966 3190 
Q 3341 2797 3341 1997 
z
" transform="scale(0.015625)"/>
      </defs>
      <use xlink:href="#DejaVuSans-43"/>
      <use xlink:href="#DejaVuSans-6f" x="69.824219"/>
      <use xlink:href="#DejaVuSans-6c" x="131.005859"/>
      <use xlink:href="#DejaVuSans-6c" x="158.789062"/>
      <use xlink:href="#DejaVuSans-65" x="186.572266"/>
      <use xlink:href="#DejaVuSans-63" x="248.095703"/>
      <use xlink:href="#DejaVuSans-74" x="303.076172"/>
      <use xlink:href="#DejaVuSans-69" x="342.285156"/>
      <use xlink:href="#DejaVuSans-6f" x="370.068359"/>
      <use xlink:href="#DejaVuSans-6e" x="431.25"/>
      <use xlink:href="#DejaVuSans-20" x="494.628906"/>
      <use xlink:href="#DejaVuSans-44" x="526.416016"/>
      <use xlink:href="#DejaVuSans-61" x="603.417969"/>
      <use xlink:href="#DejaVuSans-74" x="664.697266"/>
      <use xlink:href="#DejaVuSans-65" x="703.90625"/>
     </g>
    </g>
   </g>
   <g id="matplotlib.axis_2">
    <g id="ytick_1">
     <g id="line2d_6">
      <path d="M 62.86875 204.582396 
L 453.46875 204.582396 
" clip-path="url(#p158a773f6f)" style="fill: none; stroke: #cccccc; stroke-width: 0.8; stroke-linecap: round"/>
     </g>
     <g id="text_7">
      <!-- 0.0000 -->
      <g style="fill: #262626" transform="translate(20.878125 208.381615)scale(0.1 -0.1)">
       <defs>
        <path id="DejaVuSans-2e" d="M 684 794 
L 1344 794 
L 1344 0 
L 684 0 
L 684 794 
z
" transform="scale(0.015625)"/>
       </defs>
       <use xlink:href="#DejaVuSans-30"/>
       <use xlink:href="#DejaVuSans-2e" x="63.623047"/>
       <use xlink:href="#DejaVuSans-30" x="95.410156"/>
       <use xlink:href="#DejaVuSans-30" x="159.033203"/>
       <use xlink:href="#DejaVuSans-30" x="222.65625"/>
       <use xlink:href="#DejaVuSans-30" x="286.279297"/>
      </g>
     </g>
    </g>
    <g id="ytick_2">
     <g id="line2d_7">
      <path d="M 62.86875 175.109313 
L 453.46875 175.109313 
" clip-path="url(#p158a773f6f)" style="fill: none; stroke: #cccccc; stroke-width: 0.8; stroke-linecap: round"/>
     </g>
     <g id="text_8">
      <!-- 0.0005 -->
      <g style="fill: #262626" transform="translate(20.878125 178.908531)scale(0.1 -0.1)">
       <defs>
        <path id="DejaVuSans-35" d="M 691 4666 
L 3169 4666 
L 3169 4134 
L 1269 4134 
L 1269 2991 
Q 1406 3038 1543 3061 
Q 1681 3084 1819 3084 
Q 2600 3084 3056 2656 
Q 3513 2228 3513 1497 
Q 3513 744 3044 326 
Q 2575 -91 1722 -91 
Q 1428 -91 1123 -41 
Q 819 9 494 109 
L 494 744 
Q 775 591 1075 516 
Q 1375 441 1709 441 
Q 2250 441 2565 725 
Q 2881 1009 2881 1497 
Q 2881 1984 2565 2268 
Q 2250 2553 1709 2553 
Q 1456 2553 1204 2497 
Q 953 2441 691 2322 
L 691 4666 
z
" transform="scale(0.015625)"/>
       </defs>
       <use xlink:href="#DejaVuSans-30"/>
       <use xlink:href="#DejaVuSans-2e" x="63.623047"/>
       <use xlink:href="#DejaVuSans-30" x="95.410156"/>
       <use xlink:href="#DejaVuSans-30" x="159.033203"/>
       <use xlink:href="#DejaVuSans-30" x="222.65625"/>
       <use xlink:href="#DejaVuSans-35" x="286.279297"/>
      </g>
     </g>
    </g>
    <g id="ytick_3">
     <g id="line2d_8">
      <path d="M 62.86875 145.636229 
L 453.46875 145.636229 
" clip-path="url(#p158a773f6f)" style="fill: none; stroke: #cccccc; stroke-width: 0.8; stroke-linecap: round"/>
     </g>
     <g id="text_9">
      <!-- 0.0010 -->
      <g style="fill: #262626" transform="translate(20.878125 149.435447)scale(0.1 -0.1)">
       <use xlink:href="#DejaVuSans-30"/>
       <use xlink:href="#DejaVuSans-2e" x="63.623047"/>
       <use xlink:href="#DejaVuSans-30" x="95.410156"/>
       <use xlink:href="#DejaVuSans-30" x="159.033203"/>
       <use xlink:href="#DejaVuSans-31" x="222.65625"/>
       <use xlink:href="#DejaVuSans-30" x="286.279297"/>
      </g>
     </g>
    </g>
    <g id="ytick_4">
     <g id="line2d_9">
      <path d="M 62.86875 116.163145 
L 453.46875 116.163145 
" clip-path="url(#p158a773f6f)" style="fill: none; stroke: #cccccc; stroke-width: 0.8; stroke-linecap: round"/>
     </g>
     <g id="text_10">
      <!-- 0.0015 -->
      <g style="fill: #262626" transform="translate(20.878125 119.962364)scale(0.1 -0.1)">
       <use xlink:href="#DejaVuSans-30"/>
       <use xlink:href="#DejaVuSans-2e" x="63.623047"/>
       <use xlink:href="#DejaVuSans-30" x="95.410156"/>
       <use xlink:href="#DejaVuSans-30" x="159.033203"/>
       <use xlink:href="#DejaVuSans-31" x="222.65625"/>
       <use xlink:href="#DejaVuSans-35" x="286.279297"/>
      </g>
     </g>
    </g>
    <g id="ytick_5">
     <g id="line2d_10">
      <path d="M 62.86875 86.690061 
L 453.46875 86.690061 
" clip-path="url(#p158a773f6f)" style="fill: none; stroke: #cccccc; stroke-width: 0.8; stroke-linecap: round"/>
     </g>
     <g id="text_11">
      <!-- 0.0020 -->
      <g style="fill: #262626" transform="translate(20.878125 90.48928)scale(0.1 -0.1)">
       <use xlink:href="#DejaVuSans-30"/>
       <use xlink:href="#DejaVuSans-2e" x="63.623047"/>
       <use xlink:href="#DejaVuSans-30" x="95.410156"/>
       <use xlink:href="#DejaVuSans-30" x="159.033203"/>
       <use xlink:href="#DejaVuSans-32" x="222.65625"/>
       <use xlink:href="#DejaVuSans-30" x="286.279297"/>
      </g>
     </g>
    </g>
    <g id="ytick_6">
     <g id="line2d_11">
      <path d="M 62.86875 57.216977 
L 453.46875 57.216977 
" clip-path="url(#p158a773f6f)" style="fill: none; stroke: #cccccc; stroke-width: 0.8; stroke-linecap: round"/>
     </g>
     <g id="text_12">
      <!-- 0.0025 -->
      <g style="fill: #262626" transform="translate(20.878125 61.016196)scale(0.1 -0.1)">
       <use xlink:href="#DejaVuSans-30"/>
       <use xlink:href="#DejaVuSans-2e" x="63.623047"/>
       <use xlink:href="#DejaVuSans-30" x="95.410156"/>
       <use xlink:href="#DejaVuSans-30" x="159.033203"/>
       <use xlink:href="#DejaVuSans-32" x="222.65625"/>
       <use xlink:href="#DejaVuSans-35" x="286.279297"/>
      </g>
     </g>
    </g>
    <g id="ytick_7">
     <g id="line2d_12">
      <path d="M 62.86875 27.743893 
L 453.46875 27.743893 
" clip-path="url(#p158a773f6f)" style="fill: none; stroke: #cccccc; stroke-width: 0.8; stroke-linecap: round"/>
     </g>
     <g id="text_13">
      <!-- 0.0030 -->
      <g style="fill: #262626" transform="translate(20.878125 31.543112)scale(0.1 -0.1)">
       <defs>
        <path id="DejaVuSans-33" d="M 2597 2516 
Q 3050 2419 3304 2112 
Q 3559 1806 3559 1356 
Q 3559 666 3084 287 
Q 2609 -91 1734 -91 
Q 1441 -91 1130 -33 
Q 819 25 488 141 
L 488 750 
Q 750 597 1062 519 
Q 1375 441 1716 441 
Q 2309 441 2620 675 
Q 2931 909 2931 1356 
Q 2931 1769 2642 2001 
Q 2353 2234 1838 2234 
L 1294 2234 
L 1294 2753 
L 1863 2753 
Q 2328 2753 2575 2939 
Q 2822 3125 2822 3475 
Q 2822 3834 2567 4026 
Q 2313 4219 1838 4219 
Q 1578 4219 1281 4162 
Q 984 4106 628 3988 
L 628 4550 
Q 988 4650 1302 4700 
Q 1616 4750 1894 4750 
Q 2613 4750 3031 4423 
Q 3450 4097 3450 3541 
Q 3450 3153 3228 2886 
Q 3006 2619 2597 2516 
z
" transform="scale(0.015625)"/>
       </defs>
       <use xlink:href="#DejaVuSans-30"/>
       <use xlink:href="#DejaVuSans-2e" x="63.623047"/>
       <use xlink:href="#DejaVuSans-30" x="95.410156"/>
       <use xlink:href="#DejaVuSans-30" x="159.033203"/>
       <use xlink:href="#DejaVuSans-33" x="222.65625"/>
       <use xlink:href="#DejaVuSans-30" x="286.279297"/>
      </g>
     </g>
    </g>
    <g id="text_14">
     <!-- Substitutions per Site -->
     <g style="fill: #262626" transform="translate(14.798438 169.786406)rotate(-90)scale(0.1 -0.1)">
      <defs>
       <path id="DejaVuSans-53" d="M 3425 4513 
L 3425 3897 
Q 3066 4069 2747 4153 
Q 2428 4238 2131 4238 
Q 1616 4238 1336 4038 
Q 1056 3838 1056 3469 
Q 1056 3159 1242 3001 
Q 1428 2844 1947 2747 
L 2328 2669 
Q 3034 2534 3370 2195 
Q 3706 1856 3706 1288 
Q 3706 609 3251 259 
Q 2797 -91 1919 -91 
Q 1588 -91 1214 -16 
Q 841 59 441 206 
L 441 856 
Q 825 641 1194 531 
Q 1563 422 1919 422 
Q 2459 422 2753 634 
Q 3047 847 3047 1241 
Q 3047 1584 2836 1778 
Q 2625 1972 2144 2069 
L 1759 2144 
Q 1053 2284 737 2584 
Q 422 2884 422 3419 
Q 422 4038 858 4394 
Q 1294 4750 2059 4750 
Q 2388 4750 2728 4690 
Q 3069 4631 3425 4513 
z
" transform="scale(0.015625)"/>
       <path id="DejaVuSans-75" d="M 544 1381 
L 544 3500 
L 1119 3500 
L 1119 1403 
Q 1119 906 1312 657 
Q 1506 409 1894 409 
Q 2359 409 2629 706 
Q 2900 1003 2900 1516 
L 2900 3500 
L 3475 3500 
L 3475 0 
L 2900 0 
L 2900 538 
Q 2691 219 2414 64 
Q 2138 -91 1772 -91 
Q 1169 -91 856 284 
Q 544 659 544 1381 
z
M 1991 3584 
L 1991 3584 
z
" transform="scale(0.015625)"/>
       <path id="DejaVuSans-62" d="M 3116 1747 
Q 3116 2381 2855 2742 
Q 2594 3103 2138 3103 
Q 1681 3103 1420 2742 
Q 1159 2381 1159 1747 
Q 1159 1113 1420 752 
Q 1681 391 2138 391 
Q 2594 391 2855 752 
Q 3116 1113 3116 1747 
z
M 1159 2969 
Q 1341 3281 1617 3432 
Q 1894 3584 2278 3584 
Q 2916 3584 3314 3078 
Q 3713 2572 3713 1747 
Q 3713 922 3314 415 
Q 2916 -91 2278 -91 
Q 1894 -91 1617 61 
Q 1341 213 1159 525 
L 1159 0 
L 581 0 
L 581 4863 
L 1159 4863 
L 1159 2969 
z
" transform="scale(0.015625)"/>
       <path id="DejaVuSans-73" d="M 2834 3397 
L 2834 2853 
Q 2591 2978 2328 3040 
Q 2066 3103 1784 3103 
Q 1356 3103 1142 2972 
Q 928 2841 928 2578 
Q 928 2378 1081 2264 
Q 1234 2150 1697 2047 
L 1894 2003 
Q 2506 1872 2764 1633 
Q 3022 1394 3022 966 
Q 3022 478 2636 193 
Q 2250 -91 1575 -91 
Q 1294 -91 989 -36 
Q 684 19 347 128 
L 347 722 
Q 666 556 975 473 
Q 1284 391 1588 391 
Q 1994 391 2212 530 
Q 2431 669 2431 922 
Q 2431 1156 2273 1281 
Q 2116 1406 1581 1522 
L 1381 1569 
Q 847 1681 609 1914 
Q 372 2147 372 2553 
Q 372 3047 722 3315 
Q 1072 3584 1716 3584 
Q 2034 3584 2315 3537 
Q 2597 3491 2834 3397 
z
" transform="scale(0.015625)"/>
       <path id="DejaVuSans-70" d="M 1159 525 
L 1159 -1331 
L 581 -1331 
L 581 3500 
L 1159 3500 
L 1159 2969 
Q 1341 3281 1617 3432 
Q 1894 3584 2278 3584 
Q 2916 3584 3314 3078 
Q 3713 2572 3713 1747 
Q 3713 922 3314 415 
Q 2916 -91 2278 -91 
Q 1894 -91 1617 61 
Q 1341 213 1159 525 
z
M 3116 1747 
Q 3116 2381 2855 2742 
Q 2594 3103 2138 3103 
Q 1681 3103 1420 2742 
Q 1159 2381 1159 1747 
Q 1159 1113 1420 752 
Q 1681 391 2138 391 
Q 2594 391 2855 752 
Q 3116 1113 3116 1747 
z
" transform="scale(0.015625)"/>
       <path id="DejaVuSans-72" d="M 2631 2963 
Q 2534 3019 2420 3045 
Q 2306 3072 2169 3072 
Q 1681 3072 1420 2755 
Q 1159 2438 1159 1844 
L 1159 0 
L 581 0 
L 581 3500 
L 1159 3500 
L 1159 2956 
Q 1341 3275 1631 3429 
Q 1922 3584 2338 3584 
Q 2397 3584 2469 3576 
Q 2541 3569 2628 3553 
L 2631 2963 
z
" transform="scale(0.015625)"/>
      </defs>
      <use xlink:href="#DejaVuSans-53"/>
      <use xlink:href="#DejaVuSans-75" x="63.476562"/>
      <use xlink:href="#DejaVuSans-62" x="126.855469"/>
      <use xlink:href="#DejaVuSans-73" x="190.332031"/>
      <use xlink:href="#DejaVuSans-74" x="242.431641"/>
      <use xlink:href="#DejaVuSans-69" x="281.640625"/>
      <use xlink:href="#DejaVuSans-74" x="309.423828"/>
      <use xlink:href="#DejaVuSans-75" x="348.632812"/>
      <use xlink:href="#DejaVuSans-74" x="412.011719"/>
      <use xlink:href="#DejaVuSans-69" x="451.220703"/>
      <use xlink:href="#DejaVuSans-6f" x="479.003906"/>
      <use xlink:href="#DejaVuSans-6e" x="540.185547"/>
      <use xlink:href="#DejaVuSans-73" x="603.564453"/>
      <use xlink:href="#DejaVuSans-20" x="655.664062"/>
      <use xlink:href="#DejaVuSans-70" x="687.451172"/>
      <use xlink:href="#DejaVuSans-65" x="750.927734"/>
      <use xlink:href="#DejaVuSans-72" x="812.451172"/>
      <use xlink:href="#DejaVuSans-20" x="853.564453"/>
      <use xlink:href="#DejaVuSans-53" x="885.351562"/>
      <use xlink:href="#DejaVuSans-69" x="948.828125"/>
      <use xlink:href="#DejaVuSans-74" x="976.611328"/>
      <use xlink:href="#DejaVuSans-65" x="1015.820312"/>
     </g>
    </g>
   </g>
   <g id="PolyCollection_1">
    <defs>
     <path id="maf6c01ea77" d="M 77.646832 -53.764313 
L 77.646832 -47.439886 
L 81.512503 -48.601178 
L 85.378173 -49.762287 
L 89.243843 -50.923204 
L 93.109514 -52.08392 
L 96.975184 -53.244425 
L 100.840855 -54.404707 
L 104.706525 -55.564756 
L 108.572195 -56.724559 
L 112.437866 -57.884103 
L 116.303536 -59.043375 
L 120.169207 -60.202359 
L 124.034877 -61.36104 
L 127.900547 -62.519401 
L 131.766218 -63.677424 
L 135.631888 -64.83509 
L 139.497559 -65.992378 
L 143.363229 -67.149267 
L 147.228899 -68.305733 
L 151.09457 -69.461751 
L 154.96024 -70.617294 
L 158.825911 -71.772334 
L 162.691581 -72.92684 
L 166.557251 -74.08078 
L 170.422922 -75.234119 
L 174.288592 -76.386818 
L 178.154263 -77.538839 
L 182.019933 -78.69014 
L 185.885603 -79.840674 
L 189.751274 -80.990394 
L 193.616944 -82.139249 
L 197.482615 -83.287186 
L 201.348285 -84.434146 
L 205.213955 -85.58007 
L 209.079626 -86.724895 
L 212.945296 -87.868554 
L 216.810967 -89.010979 
L 220.676637 -90.152097 
L 224.542307 -91.291837 
L 228.407978 -92.430121 
L 232.273648 -93.566873 
L 236.139319 -94.702017 
L 240.004989 -95.835474 
L 243.87066 -96.96717 
L 247.73633 -98.09703 
L 251.602 -99.224983 
L 255.467671 -100.350964 
L 259.333341 -101.474912 
L 263.199012 -102.596772 
L 267.064682 -103.716499 
L 270.930352 -104.834055 
L 274.796023 -105.949412 
L 278.661693 -107.062554 
L 282.527364 -108.173474 
L 286.393034 -109.282175 
L 290.258704 -110.388673 
L 294.124375 -111.492995 
L 297.990045 -112.595174 
L 301.855716 -113.695256 
L 305.721386 -114.793293 
L 309.587056 -115.889345 
L 313.452727 -116.983477 
L 317.318397 -118.075758 
L 321.184068 -119.166261 
L 325.049738 -120.255064 
L 328.915408 -121.342241 
L 332.781079 -122.427871 
L 336.646749 -123.512031 
L 340.51242 -124.594795 
L 344.37809 -125.676239 
L 348.24376 -126.756434 
L 352.109431 -127.83545 
L 355.975101 -128.913353 
L 359.840772 -129.990207 
L 363.706442 -131.066073 
L 367.572112 -132.141009 
L 371.437783 -133.215069 
L 375.303453 -134.288305 
L 379.169124 -135.360766 
L 383.034794 -136.432496 
L 386.900464 -137.50354 
L 390.766135 -138.573937 
L 394.631805 -139.643725 
L 398.497476 -140.71294 
L 402.363146 -141.781614 
L 406.228816 -142.849779 
L 410.094487 -143.917464 
L 413.960157 -144.984696 
L 417.825828 -146.051499 
L 421.691498 -147.117899 
L 425.557168 -148.183916 
L 429.422839 -149.249573 
L 433.288509 -150.314888 
L 437.15418 -151.379879 
L 441.01985 -152.444563 
L 444.88552 -153.508958 
L 448.751191 -154.573076 
L 452.616861 -155.636933 
L 456.482532 -156.700541 
L 460.348202 -157.763914 
L 460.348202 -163.577502 
L 460.348202 -163.577502 
L 456.482532 -162.417266 
L 452.616861 -161.257266 
L 448.751191 -160.097515 
L 444.88552 -158.938025 
L 441.01985 -157.778811 
L 437.15418 -156.619888 
L 433.288509 -155.461271 
L 429.422839 -154.302977 
L 425.557168 -153.145025 
L 421.691498 -151.987435 
L 417.825828 -150.830226 
L 413.960157 -149.673421 
L 410.094487 -148.517045 
L 406.228816 -147.361121 
L 402.363146 -146.205678 
L 398.497476 -145.050744 
L 394.631805 -143.896351 
L 390.766135 -142.742531 
L 386.900464 -141.589319 
L 383.034794 -140.436755 
L 379.169124 -139.284877 
L 375.303453 -138.133729 
L 371.437783 -136.983357 
L 367.572112 -135.833809 
L 363.706442 -134.685136 
L 359.840772 -133.537394 
L 355.975101 -132.39064 
L 352.109431 -131.244935 
L 348.24376 -130.100343 
L 344.37809 -128.956929 
L 340.51242 -127.814765 
L 336.646749 -126.673921 
L 332.781079 -125.534473 
L 328.915408 -124.396494 
L 325.049738 -123.260064 
L 321.184068 -122.125258 
L 317.318397 -120.992153 
L 313.452727 -119.860826 
L 309.587056 -118.731349 
L 305.721386 -117.603793 
L 301.855716 -116.478221 
L 297.990045 -115.354695 
L 294.124375 -114.233266 
L 290.258704 -113.11398 
L 286.393034 -111.99687 
L 282.527364 -110.881963 
L 278.661693 -109.769274 
L 274.796023 -108.658808 
L 270.930352 -107.550557 
L 267.064682 -106.444505 
L 263.199012 -105.340623 
L 259.333341 -104.238875 
L 255.467671 -103.139214 
L 251.602 -102.041587 
L 247.73633 -100.945932 
L 243.87066 -99.852184 
L 240.004989 -98.760271 
L 236.139319 -97.670121 
L 232.273648 -96.581656 
L 228.407978 -95.4948 
L 224.542307 -94.409476 
L 220.676637 -93.325607 
L 216.810967 -92.243118 
L 212.945296 -91.161934 
L 209.079626 -90.081985 
L 205.213955 -89.003201 
L 201.348285 -87.925517 
L 197.482615 -86.848869 
L 193.616944 -85.773197 
L 189.751274 -84.698444 
L 185.885603 -83.624556 
L 182.019933 -82.551482 
L 178.154263 -81.479174 
L 174.288592 -80.407587 
L 170.422922 -79.336679 
L 166.557251 -78.266409 
L 162.691581 -77.19674 
L 158.825911 -76.127638 
L 154.96024 -75.05907 
L 151.09457 -73.991005 
L 147.228899 -72.923415 
L 143.363229 -71.856273 
L 139.497559 -70.789553 
L 135.631888 -69.723233 
L 131.766218 -68.657291 
L 127.900547 -67.591706 
L 124.034877 -66.526458 
L 120.169207 -65.461531 
L 116.303536 -64.396907 
L 112.437866 -63.33257 
L 108.572195 -62.268506 
L 104.706525 -61.204701 
L 100.840855 -60.141141 
L 96.975184 -59.077816 
L 93.109514 -58.014712 
L 89.243843 -56.95182 
L 85.378173 -55.889129 
L 81.512503 -54.826629 
L 77.646832 -53.764313 
z
" style="stroke: #e7298a; stroke-opacity: 0.5"/>
    </defs>
    <g clip-path="url(#p158a773f6f)">
     <use xlink:href="#maf6c01ea77" x="0" y="262.19625" style="fill: #e7298a; fill-opacity: 0.5; stroke: #e7298a; stroke-opacity: 0.5"/>
    </g>
   </g>
   <g id="PolyCollection_2">
    <defs>
     <path id="mdcbe6b83f4" d="M 110.181865 -64.639959 
L 110.181865 -59.705575 
L 113.693162 -60.880411 
L 117.204459 -62.055067 
L 120.715755 -63.229535 
L 124.227052 -64.403804 
L 127.738349 -65.577864 
L 131.249646 -66.751703 
L 134.760943 -67.925308 
L 138.27224 -69.098666 
L 141.783537 -70.271763 
L 145.294834 -71.444584 
L 148.806131 -72.617112 
L 152.317427 -73.789331 
L 155.828724 -74.96122 
L 159.340021 -76.132761 
L 162.851318 -77.303931 
L 166.362615 -78.474708 
L 169.873912 -79.645066 
L 173.385209 -80.814979 
L 176.896506 -81.984418 
L 180.407803 -83.153352 
L 183.919099 -84.32175 
L 187.430396 -85.489574 
L 190.941693 -86.656787 
L 194.45299 -87.823349 
L 197.964287 -88.989217 
L 201.475584 -90.154344 
L 204.986881 -91.318681 
L 208.498178 -92.482176 
L 212.009475 -93.644773 
L 215.520771 -94.806414 
L 219.032068 -95.967038 
L 222.543365 -97.12658 
L 226.054662 -98.284973 
L 229.565959 -99.442147 
L 233.077256 -100.598032 
L 236.588553 -101.752553 
L 240.09985 -102.905639 
L 243.611147 -104.057214 
L 247.122443 -105.207207 
L 250.63374 -106.355548 
L 254.145037 -107.502169 
L 257.656334 -108.647008 
L 261.167631 -109.790007 
L 264.678928 -110.931118 
L 268.190225 -112.070298 
L 271.701522 -113.207515 
L 275.212819 -114.342746 
L 278.724115 -115.47598 
L 282.235412 -116.607216 
L 285.746709 -117.736464 
L 289.258006 -118.863746 
L 292.769303 -119.989091 
L 296.2806 -121.11254 
L 299.791897 -122.234143 
L 303.303194 -123.353954 
L 306.814491 -124.472037 
L 310.325787 -125.588456 
L 313.837084 -126.703283 
L 317.348381 -127.81659 
L 320.859678 -128.928449 
L 324.370975 -130.038935 
L 327.882272 -131.14812 
L 331.393569 -132.256076 
L 334.904866 -133.362873 
L 338.416163 -134.468579 
L 341.927459 -135.573257 
L 345.438756 -136.676971 
L 348.950053 -137.779779 
L 352.46135 -138.881737 
L 355.972647 -139.982897 
L 359.483944 -141.08331 
L 362.995241 -142.183021 
L 366.506538 -143.282075 
L 370.017835 -144.380513 
L 373.529131 -145.478372 
L 377.040428 -146.575689 
L 380.551725 -147.672496 
L 384.063022 -148.768825 
L 387.574319 -149.864705 
L 391.085616 -150.960163 
L 394.596913 -152.055223 
L 398.10821 -153.14991 
L 401.619507 -154.244245 
L 405.130804 -155.338248 
L 408.6421 -156.431938 
L 412.153397 -157.525334 
L 415.664694 -158.61845 
L 419.175991 -159.711304 
L 422.687288 -160.803909 
L 426.198585 -161.896278 
L 429.709882 -162.988424 
L 433.221179 -164.08036 
L 436.732476 -165.172095 
L 440.243772 -166.263639 
L 443.755069 -167.355004 
L 447.266366 -168.446197 
L 450.777663 -169.537228 
L 454.28896 -170.628103 
L 457.800257 -171.718831 
L 457.800257 -176.977963 
L 457.800257 -176.977963 
L 454.28896 -175.802517 
L 450.777663 -174.627218 
L 447.266366 -173.452074 
L 443.755069 -172.277093 
L 440.243772 -171.102283 
L 436.732476 -169.927654 
L 433.221179 -168.753214 
L 429.709882 -167.578975 
L 426.198585 -166.404947 
L 422.687288 -165.231142 
L 419.175991 -164.057573 
L 415.664694 -162.884252 
L 412.153397 -161.711194 
L 408.6421 -160.538415 
L 405.130804 -159.365931 
L 401.619507 -158.19376 
L 398.10821 -157.021921 
L 394.596913 -155.850433 
L 391.085616 -154.679319 
L 387.574319 -153.508602 
L 384.063022 -152.338308 
L 380.551725 -151.168463 
L 377.040428 -149.999096 
L 373.529131 -148.830238 
L 370.017835 -147.661923 
L 366.506538 -146.494186 
L 362.995241 -145.327066 
L 359.483944 -144.160603 
L 355.972647 -142.994842 
L 352.46135 -141.829828 
L 348.950053 -140.665611 
L 345.438756 -139.502244 
L 341.927459 -138.339784 
L 338.416163 -137.178288 
L 334.904866 -136.017819 
L 331.393569 -134.858442 
L 327.882272 -133.700224 
L 324.370975 -132.543235 
L 320.859678 -131.387546 
L 317.348381 -130.233231 
L 313.837084 -129.080363 
L 310.325787 -127.929016 
L 306.814491 -126.779261 
L 303.303194 -125.631169 
L 299.791897 -124.484806 
L 296.2806 -123.340234 
L 292.769303 -122.19751 
L 289.258006 -121.05668 
L 285.746709 -119.917787 
L 282.235412 -118.780861 
L 278.724115 -117.645923 
L 275.212819 -116.512982 
L 271.701522 -115.38204 
L 268.190225 -114.253082 
L 264.678928 -113.126088 
L 261.167631 -112.001024 
L 257.656334 -110.877849 
L 254.145037 -109.756513 
L 250.63374 -108.63696 
L 247.122443 -107.519126 
L 243.611147 -106.402945 
L 240.09985 -105.288346 
L 236.588553 -104.175257 
L 233.077256 -103.063605 
L 229.565959 -101.953315 
L 226.054662 -100.844315 
L 222.543365 -99.736533 
L 219.032068 -98.629901 
L 215.520771 -97.52435 
L 212.009475 -96.419817 
L 208.498178 -95.31624 
L 204.986881 -94.213561 
L 201.475584 -93.111723 
L 197.964287 -92.010676 
L 194.45299 -90.910369 
L 190.941693 -89.810757 
L 187.430396 -88.711796 
L 183.919099 -87.613446 
L 180.407803 -86.515669 
L 176.896506 -85.418429 
L 173.385209 -84.321694 
L 169.873912 -83.225432 
L 166.362615 -82.129616 
L 162.851318 -81.034218 
L 159.340021 -79.939214 
L 155.828724 -78.844581 
L 152.317427 -77.750296 
L 148.806131 -76.65634 
L 145.294834 -75.562694 
L 141.783537 -74.46934 
L 138.27224 -73.376263 
L 134.760943 -72.283447 
L 131.249646 -71.190878 
L 127.738349 -70.098542 
L 124.227052 -69.006428 
L 120.715755 -67.914522 
L 117.204459 -66.822816 
L 113.693162 -65.731298 
L 110.181865 -64.639959 
z
" style="stroke: #66a61e; stroke-opacity: 0.5"/>
    </defs>
    <g clip-path="url(#p158a773f6f)">
     <use xlink:href="#mdcbe6b83f4" x="0" y="262.19625" style="fill: #66a61e; fill-opacity: 0.5; stroke: #66a61e; stroke-opacity: 0.5"/>
    </g>
   </g>
   <g id="PolyCollection_3">
    <defs>
     <path id="m57849608a2" d="M 113.231045 -78.911963 
L 113.231045 -73.254565 
L 116.706395 -73.862377 
L 120.181745 -74.469595 
L 123.657094 -75.076175 
L 127.132444 -75.682066 
L 130.607794 -76.287216 
L 134.083143 -76.891566 
L 137.558493 -77.495052 
L 141.033843 -78.097603 
L 144.509193 -78.699143 
L 147.984542 -79.299587 
L 151.459892 -79.898845 
L 154.935242 -80.496815 
L 158.410592 -81.093389 
L 161.885941 -81.688448 
L 165.361291 -82.281864 
L 168.836641 -82.873496 
L 172.31199 -83.463197 
L 175.78734 -84.050805 
L 179.26269 -84.636151 
L 182.73804 -85.219055 
L 186.213389 -85.799328 
L 189.688739 -86.376779 
L 193.164089 -86.951209 
L 196.639438 -87.522421 
L 200.114788 -88.090222 
L 203.590138 -88.654427 
L 207.065488 -89.214865 
L 210.540837 -89.771384 
L 214.016187 -90.323856 
L 217.491537 -90.872184 
L 220.966887 -91.416302 
L 224.442236 -91.956183 
L 227.917586 -92.491835 
L 231.392936 -93.023303 
L 234.868285 -93.550668 
L 238.343635 -94.074042 
L 241.818985 -94.593566 
L 245.294335 -95.1094 
L 248.769684 -95.621722 
L 252.245034 -96.130722 
L 255.720384 -96.636595 
L 259.195734 -97.13954 
L 262.671083 -97.639753 
L 266.146433 -98.137423 
L 269.621783 -98.632736 
L 273.097132 -99.125867 
L 276.572482 -99.616981 
L 280.047832 -100.106233 
L 283.523182 -100.593769 
L 286.998531 -101.079723 
L 290.473881 -101.564217 
L 293.949231 -102.047368 
L 297.42458 -102.529279 
L 300.89993 -103.010046 
L 304.37528 -103.489758 
L 307.85063 -103.968495 
L 311.325979 -104.446331 
L 314.801329 -104.923334 
L 318.276679 -105.399564 
L 321.752029 -105.875078 
L 325.227378 -106.349928 
L 328.702728 -106.82416 
L 332.178078 -107.297818 
L 335.653427 -107.770942 
L 339.128777 -108.243567 
L 342.604127 -108.715727 
L 346.079477 -109.187453 
L 349.554826 -109.658772 
L 353.030176 -110.129711 
L 356.505526 -110.600293 
L 359.980876 -111.070541 
L 363.456225 -111.540474 
L 366.931575 -112.010112 
L 370.406925 -112.479472 
L 373.882274 -112.94857 
L 377.357624 -113.417421 
L 380.832974 -113.886039 
L 384.308324 -114.354437 
L 387.783673 -114.822627 
L 391.259023 -115.290619 
L 394.734373 -115.758426 
L 398.209722 -116.226055 
L 401.685072 -116.693516 
L 405.160422 -117.160818 
L 408.635772 -117.627969 
L 412.111121 -118.094976 
L 415.586471 -118.561846 
L 419.061821 -119.028585 
L 422.537171 -119.495201 
L 426.01252 -119.961697 
L 429.48787 -120.428081 
L 432.96322 -120.894356 
L 436.438569 -121.360529 
L 439.913919 -121.826602 
L 443.389269 -122.292582 
L 446.864619 -122.758471 
L 450.339968 -123.224273 
L 453.815318 -123.689993 
L 457.290668 -124.155633 
L 457.290668 -135.102334 
L 457.290668 -135.102334 
L 453.815318 -134.486242 
L 450.339968 -133.87023 
L 446.864619 -133.254301 
L 443.389269 -132.638458 
L 439.913919 -132.022706 
L 436.438569 -131.407048 
L 432.96322 -130.791489 
L 429.48787 -130.176033 
L 426.01252 -129.560684 
L 422.537171 -128.945449 
L 419.061821 -128.330333 
L 415.586471 -127.715341 
L 412.111121 -127.100479 
L 408.635772 -126.485754 
L 405.160422 -125.871173 
L 401.685072 -125.256743 
L 398.209722 -124.642473 
L 394.734373 -124.028371 
L 391.259023 -123.414445 
L 387.783673 -122.800706 
L 384.308324 -122.187164 
L 380.832974 -121.57383 
L 377.357624 -120.960716 
L 373.882274 -120.347836 
L 370.406925 -119.735202 
L 366.931575 -119.122831 
L 363.456225 -118.510737 
L 359.980876 -117.898939 
L 356.505526 -117.287454 
L 353.030176 -116.676305 
L 349.554826 -116.065512 
L 346.079477 -115.4551 
L 342.604127 -114.845094 
L 339.128777 -114.235522 
L 335.653427 -113.626415 
L 332.178078 -113.017807 
L 328.702728 -112.409734 
L 325.227378 -111.802234 
L 321.752029 -111.195352 
L 318.276679 -110.589135 
L 314.801329 -109.983633 
L 311.325979 -109.378904 
L 307.85063 -108.775008 
L 304.37528 -108.172014 
L 300.89993 -107.569994 
L 297.42458 -106.96903 
L 293.949231 -106.369209 
L 290.473881 -105.770628 
L 286.998531 -105.173391 
L 283.523182 -104.577612 
L 280.047832 -103.983416 
L 276.572482 -103.390937 
L 273.097132 -102.80032 
L 269.621783 -102.211719 
L 266.146433 -101.6253 
L 262.671083 -101.041239 
L 259.195734 -100.459719 
L 255.720384 -99.880933 
L 252.245034 -99.305075 
L 248.769684 -98.732343 
L 245.294335 -98.162933 
L 241.818985 -97.597035 
L 238.343635 -97.034827 
L 234.868285 -96.47647 
L 231.392936 -95.922103 
L 227.917586 -95.37184 
L 224.442236 -94.82576 
L 220.966887 -94.283909 
L 217.491537 -93.746295 
L 214.016187 -93.212892 
L 210.540837 -92.683632 
L 207.065488 -92.158419 
L 203.590138 -91.637125 
L 200.114788 -91.119598 
L 196.639438 -90.605668 
L 193.164089 -90.095148 
L 189.688739 -89.587847 
L 186.213389 -89.083565 
L 182.73804 -88.582107 
L 179.26269 -88.083279 
L 175.78734 -87.586893 
L 172.31199 -87.09277 
L 168.836641 -86.600739 
L 165.361291 -86.11064 
L 161.885941 -85.622324 
L 158.410592 -85.135651 
L 154.935242 -84.650493 
L 151.459892 -84.166732 
L 147.984542 -83.684258 
L 144.509193 -83.20297 
L 141.033843 -82.722779 
L 137.558493 -82.243598 
L 134.083143 -81.765352 
L 130.607794 -81.28797 
L 127.132444 -80.811389 
L 123.657094 -80.335549 
L 120.181745 -79.860396 
L 116.706395 -79.385883 
L 113.231045 -78.911963 
z
" style="stroke: #a6761d; stroke-opacity: 0.5"/>
    </defs>
    <g clip-path="url(#p158a773f6f)">
     <use xlink:href="#m57849608a2" x="0" y="262.19625" style="fill: #a6761d; fill-opacity: 0.5; stroke: #a6761d; stroke-opacity: 0.5"/>
    </g>
   </g>
   <g id="PolyCollection_4">
    <defs>
     <path id="m9d40a1417f" d="M 423.657791 -232.169958 
L 423.657791 -207.399629 
L 423.801917 -207.707792 
L 423.946043 -208.015353 
L 424.09017 -208.32229 
L 424.234296 -208.628583 
L 424.378422 -208.934209 
L 424.522548 -209.239144 
L 424.666674 -209.543364 
L 424.810801 -209.846843 
L 424.954927 -210.149554 
L 425.099053 -210.451471 
L 425.243179 -210.752563 
L 425.387305 -211.052802 
L 425.531432 -211.352154 
L 425.675558 -211.650589 
L 425.819684 -211.948071 
L 425.96381 -212.244566 
L 426.107936 -212.540035 
L 426.252063 -212.834441 
L 426.396189 -213.127743 
L 426.540315 -213.4199 
L 426.684441 -213.710867 
L 426.828567 -214.0006 
L 426.972694 -214.289051 
L 427.11682 -214.576171 
L 427.260946 -214.861909 
L 427.405072 -215.146212 
L 427.549198 -215.429025 
L 427.693325 -215.71029 
L 427.837451 -215.989949 
L 427.981577 -216.26794 
L 428.125703 -216.544199 
L 428.269829 -216.81866 
L 428.413955 -217.091256 
L 428.558082 -217.361916 
L 428.702208 -217.630568 
L 428.846334 -217.897138 
L 428.99046 -218.161549 
L 429.134586 -218.423723 
L 429.278713 -218.68358 
L 429.422839 -218.941037 
L 429.566965 -219.196012 
L 429.711091 -219.448419 
L 429.855217 -219.698173 
L 429.999344 -219.945186 
L 430.14347 -220.189371 
L 430.287596 -220.430639 
L 430.431722 -220.668903 
L 430.575848 -220.904076 
L 430.719975 -221.136069 
L 430.864101 -221.364798 
L 431.008227 -221.590178 
L 431.152353 -221.812127 
L 431.296479 -222.030567 
L 431.440606 -222.24542 
L 431.584732 -222.456615 
L 431.728858 -222.664082 
L 431.872984 -222.867758 
L 432.01711 -223.067585 
L 432.161237 -223.263509 
L 432.305363 -223.455483 
L 432.449489 -223.643469 
L 432.593615 -223.827431 
L 432.737741 -224.007344 
L 432.881867 -224.183188 
L 433.025994 -224.354953 
L 433.17012 -224.522635 
L 433.314246 -224.686238 
L 433.458372 -224.845773 
L 433.602498 -225.001261 
L 433.746625 -225.152727 
L 433.890751 -225.300206 
L 434.034877 -225.443739 
L 434.179003 -225.583372 
L 434.323129 -225.719159 
L 434.467256 -225.851159 
L 434.611382 -225.979436 
L 434.755508 -226.104058 
L 434.899634 -226.225099 
L 435.04376 -226.342634 
L 435.187887 -226.456744 
L 435.332013 -226.567511 
L 435.476139 -226.675018 
L 435.620265 -226.779352 
L 435.764391 -226.8806 
L 435.908518 -226.978848 
L 436.052644 -227.074186 
L 436.19677 -227.166701 
L 436.340896 -227.256481 
L 436.485022 -227.343613 
L 436.629149 -227.428182 
L 436.773275 -227.510274 
L 436.917401 -227.589972 
L 437.061527 -227.667358 
L 437.205653 -227.742512 
L 437.349779 -227.815512 
L 437.493906 -227.886434 
L 437.638032 -227.955353 
L 437.782158 -228.02234 
L 437.926284 -228.087466 
L 437.926284 -245.112614 
L 437.926284 -245.112614 
L 437.782158 -244.838038 
L 437.638032 -244.565324 
L 437.493906 -244.29454 
L 437.349779 -244.025761 
L 437.205653 -243.759058 
L 437.061527 -243.49451 
L 436.917401 -243.232194 
L 436.773275 -242.97219 
L 436.629149 -242.71458 
L 436.485022 -242.459448 
L 436.340896 -242.206877 
L 436.19677 -241.956955 
L 436.052644 -241.709769 
L 435.908518 -241.465405 
L 435.764391 -241.223951 
L 435.620265 -240.985497 
L 435.476139 -240.750129 
L 435.332013 -240.517934 
L 435.187887 -240.288999 
L 435.04376 -240.063407 
L 434.899634 -239.84124 
L 434.755508 -239.622579 
L 434.611382 -239.4075 
L 434.467256 -239.196075 
L 434.323129 -238.988372 
L 434.179003 -238.784458 
L 434.034877 -238.584389 
L 433.890751 -238.388219 
L 433.746625 -238.195997 
L 433.602498 -238.007761 
L 433.458372 -237.823547 
L 433.314246 -237.64338 
L 433.17012 -237.467281 
L 433.025994 -237.295261 
L 432.881867 -237.127324 
L 432.737741 -236.963466 
L 432.593615 -236.803677 
L 432.449489 -236.647937 
L 432.305363 -236.496221 
L 432.161237 -236.348493 
L 432.01711 -236.204716 
L 431.872984 -236.06484 
L 431.728858 -235.928814 
L 431.584732 -235.79658 
L 431.440606 -235.668072 
L 431.296479 -235.543223 
L 431.152353 -235.421961 
L 431.008227 -235.304209 
L 430.864101 -235.189887 
L 430.719975 -235.078914 
L 430.575848 -234.971205 
L 430.431722 -234.866675 
L 430.287596 -234.765238 
L 430.14347 -234.666804 
L 429.999344 -234.571287 
L 429.855217 -234.478598 
L 429.711091 -234.38865 
L 429.566965 -234.301355 
L 429.422839 -234.216628 
L 429.278713 -234.134383 
L 429.134586 -234.054538 
L 428.99046 -233.97701 
L 428.846334 -233.901719 
L 428.702208 -233.828587 
L 428.558082 -233.757537 
L 428.413955 -233.688496 
L 428.269829 -233.621389 
L 428.125703 -233.556149 
L 427.981577 -233.492706 
L 427.837451 -233.430994 
L 427.693325 -233.370951 
L 427.549198 -233.312515 
L 427.405072 -233.255626 
L 427.260946 -233.200227 
L 427.11682 -233.146263 
L 426.972694 -233.093681 
L 426.828567 -233.04243 
L 426.684441 -232.992461 
L 426.540315 -232.943726 
L 426.396189 -232.896181 
L 426.252063 -232.849781 
L 426.107936 -232.804485 
L 425.96381 -232.760252 
L 425.819684 -232.717045 
L 425.675558 -232.674825 
L 425.531432 -232.633558 
L 425.387305 -232.593209 
L 425.243179 -232.553745 
L 425.099053 -232.515136 
L 424.954927 -232.47735 
L 424.810801 -232.44036 
L 424.666674 -232.404137 
L 424.522548 -232.368655 
L 424.378422 -232.333888 
L 424.234296 -232.299811 
L 424.09017 -232.266402 
L 423.946043 -232.233638 
L 423.801917 -232.201497 
L 423.657791 -232.169958 
z
" style="stroke: #d95f02; stroke-opacity: 0.5"/>
    </defs>
    <g clip-path="url(#p158a773f6f)">
     <use xlink:href="#m9d40a1417f" x="0" y="262.19625" style="fill: #d95f02; fill-opacity: 0.5; stroke: #d95f02; stroke-opacity: 0.5"/>
    </g>
   </g>
   <g id="line2d_13">
    <path d="M 77.646832 211.59415 
L 81.512503 210.482346 
L 85.378173 209.370542 
L 89.243843 208.258738 
L 93.109514 207.146934 
L 96.975184 206.03513 
L 100.840855 204.923326 
L 104.706525 203.811521 
L 108.572195 202.699717 
L 112.437866 201.587913 
L 116.303536 200.476109 
L 120.169207 199.364305 
L 124.034877 198.252501 
L 127.900547 197.140697 
L 131.766218 196.028893 
L 135.631888 194.917088 
L 139.497559 193.805284 
L 143.363229 192.69348 
L 147.228899 191.581676 
L 151.09457 190.469872 
L 154.96024 189.358068 
L 158.825911 188.246264 
L 162.691581 187.13446 
L 166.557251 186.022655 
L 170.422922 184.910851 
L 174.288592 183.799047 
L 178.154263 182.687243 
L 182.019933 181.575439 
L 185.885603 180.463635 
L 189.751274 179.351831 
L 193.616944 178.240027 
L 197.482615 177.128222 
L 201.348285 176.016418 
L 205.213955 174.904614 
L 209.079626 173.79281 
L 212.945296 172.681006 
L 216.810967 171.569202 
L 220.676637 170.457398 
L 224.542307 169.345594 
L 228.407978 168.23379 
L 232.273648 167.121985 
L 236.139319 166.010181 
L 240.004989 164.898377 
L 243.87066 163.786573 
L 247.73633 162.674769 
L 251.602 161.562965 
L 255.467671 160.451161 
L 259.333341 159.339357 
L 263.199012 158.227552 
L 267.064682 157.115748 
L 270.930352 156.003944 
L 274.796023 154.89214 
L 278.661693 153.780336 
L 282.527364 152.668532 
L 286.393034 151.556728 
L 290.258704 150.444924 
L 294.124375 149.333119 
L 297.990045 148.221315 
L 301.855716 147.109511 
L 305.721386 145.997707 
L 309.587056 144.885903 
L 313.452727 143.774099 
L 317.318397 142.662295 
L 321.184068 141.550491 
L 325.049738 140.438686 
L 328.915408 139.326882 
L 332.781079 138.215078 
L 336.646749 137.103274 
L 340.51242 135.99147 
L 344.37809 134.879666 
L 348.24376 133.767862 
L 352.109431 132.656058 
L 355.975101 131.544253 
L 359.840772 130.432449 
L 363.706442 129.320645 
L 367.572112 128.208841 
L 371.437783 127.097037 
L 375.303453 125.985233 
L 379.169124 124.873429 
L 383.034794 123.761625 
L 386.900464 122.64982 
L 390.766135 121.538016 
L 394.631805 120.426212 
L 398.497476 119.314408 
L 402.363146 118.202604 
L 406.228816 117.0908 
L 410.094487 115.978996 
L 413.960157 114.867192 
L 417.825828 113.755387 
L 421.691498 112.643583 
L 425.557168 111.531779 
L 429.422839 110.419975 
L 433.288509 109.308171 
L 437.15418 108.196367 
L 441.01985 107.084563 
L 444.88552 105.972759 
L 448.751191 104.860954 
L 452.616861 103.74915 
L 456.482532 102.637346 
L 460.348202 101.525542 
" clip-path="url(#p158a773f6f)" style="fill: none; stroke: #e7298a; stroke-width: 1.5; stroke-linecap: round"/>
   </g>
   <g id="line2d_14">
    <path d="M 110.181865 200.023483 
L 113.693162 198.890396 
L 117.204459 197.757308 
L 120.715755 196.624221 
L 124.227052 195.491134 
L 127.738349 194.358047 
L 131.249646 193.22496 
L 134.760943 192.091873 
L 138.27224 190.958785 
L 141.783537 189.825698 
L 145.294834 188.692611 
L 148.806131 187.559524 
L 152.317427 186.426437 
L 155.828724 185.29335 
L 159.340021 184.160262 
L 162.851318 183.027175 
L 166.362615 181.894088 
L 169.873912 180.761001 
L 173.385209 179.627914 
L 176.896506 178.494827 
L 180.407803 177.361739 
L 183.919099 176.228652 
L 187.430396 175.095565 
L 190.941693 173.962478 
L 194.45299 172.829391 
L 197.964287 171.696304 
L 201.475584 170.563216 
L 204.986881 169.430129 
L 208.498178 168.297042 
L 212.009475 167.163955 
L 215.520771 166.030868 
L 219.032068 164.89778 
L 222.543365 163.764693 
L 226.054662 162.631606 
L 229.565959 161.498519 
L 233.077256 160.365432 
L 236.588553 159.232345 
L 240.09985 158.099257 
L 243.611147 156.96617 
L 247.122443 155.833083 
L 250.63374 154.699996 
L 254.145037 153.566909 
L 257.656334 152.433822 
L 261.167631 151.300734 
L 264.678928 150.167647 
L 268.190225 149.03456 
L 271.701522 147.901473 
L 275.212819 146.768386 
L 278.724115 145.635299 
L 282.235412 144.502211 
L 285.746709 143.369124 
L 289.258006 142.236037 
L 292.769303 141.10295 
L 296.2806 139.969863 
L 299.791897 138.836776 
L 303.303194 137.703688 
L 306.814491 136.570601 
L 310.325787 135.437514 
L 313.837084 134.304427 
L 317.348381 133.17134 
L 320.859678 132.038252 
L 324.370975 130.905165 
L 327.882272 129.772078 
L 331.393569 128.638991 
L 334.904866 127.505904 
L 338.416163 126.372817 
L 341.927459 125.239729 
L 345.438756 124.106642 
L 348.950053 122.973555 
L 352.46135 121.840468 
L 355.972647 120.707381 
L 359.483944 119.574294 
L 362.995241 118.441206 
L 366.506538 117.308119 
L 370.017835 116.175032 
L 373.529131 115.041945 
L 377.040428 113.908858 
L 380.551725 112.775771 
L 384.063022 111.642683 
L 387.574319 110.509596 
L 391.085616 109.376509 
L 394.596913 108.243422 
L 398.10821 107.110335 
L 401.619507 105.977248 
L 405.130804 104.84416 
L 408.6421 103.711073 
L 412.153397 102.577986 
L 415.664694 101.444899 
L 419.175991 100.311812 
L 422.687288 99.178724 
L 426.198585 98.045637 
L 429.709882 96.91255 
L 433.221179 95.779463 
L 436.732476 94.646376 
L 440.243772 93.513289 
L 443.755069 92.380201 
L 447.266366 91.247114 
L 450.777663 90.114027 
L 454.28896 88.98094 
L 457.800257 87.847853 
" clip-path="url(#p158a773f6f)" style="fill: none; stroke: #66a61e; stroke-width: 1.5; stroke-linecap: round"/>
   </g>
   <g id="line2d_15">
    <path d="M 113.231045 186.112986 
L 116.706395 185.57212 
L 120.181745 185.031254 
L 123.657094 184.490388 
L 127.132444 183.949523 
L 130.607794 183.408657 
L 134.083143 182.867791 
L 137.558493 182.326925 
L 141.033843 181.786059 
L 144.509193 181.245193 
L 147.984542 180.704327 
L 151.459892 180.163462 
L 154.935242 179.622596 
L 158.410592 179.08173 
L 161.885941 178.540864 
L 165.361291 177.999998 
L 168.836641 177.459132 
L 172.31199 176.918267 
L 175.78734 176.377401 
L 179.26269 175.836535 
L 182.73804 175.295669 
L 186.213389 174.754803 
L 189.688739 174.213937 
L 193.164089 173.673071 
L 196.639438 173.132206 
L 200.114788 172.59134 
L 203.590138 172.050474 
L 207.065488 171.509608 
L 210.540837 170.968742 
L 214.016187 170.427876 
L 217.491537 169.88701 
L 220.966887 169.346145 
L 224.442236 168.805279 
L 227.917586 168.264413 
L 231.392936 167.723547 
L 234.868285 167.182681 
L 238.343635 166.641815 
L 241.818985 166.100949 
L 245.294335 165.560084 
L 248.769684 165.019218 
L 252.245034 164.478352 
L 255.720384 163.937486 
L 259.195734 163.39662 
L 262.671083 162.855754 
L 266.146433 162.314888 
L 269.621783 161.774023 
L 273.097132 161.233157 
L 276.572482 160.692291 
L 280.047832 160.151425 
L 283.523182 159.610559 
L 286.998531 159.069693 
L 290.473881 158.528828 
L 293.949231 157.987962 
L 297.42458 157.447096 
L 300.89993 156.90623 
L 304.37528 156.365364 
L 307.85063 155.824498 
L 311.325979 155.283632 
L 314.801329 154.742767 
L 318.276679 154.201901 
L 321.752029 153.661035 
L 325.227378 153.120169 
L 328.702728 152.579303 
L 332.178078 152.038437 
L 335.653427 151.497571 
L 339.128777 150.956706 
L 342.604127 150.41584 
L 346.079477 149.874974 
L 349.554826 149.334108 
L 353.030176 148.793242 
L 356.505526 148.252376 
L 359.980876 147.71151 
L 363.456225 147.170645 
L 366.931575 146.629779 
L 370.406925 146.088913 
L 373.882274 145.548047 
L 377.357624 145.007181 
L 380.832974 144.466315 
L 384.308324 143.925449 
L 387.783673 143.384584 
L 391.259023 142.843718 
L 394.734373 142.302852 
L 398.209722 141.761986 
L 401.685072 141.22112 
L 405.160422 140.680254 
L 408.635772 140.139388 
L 412.111121 139.598523 
L 415.586471 139.057657 
L 419.061821 138.516791 
L 422.537171 137.975925 
L 426.01252 137.435059 
L 429.48787 136.894193 
L 432.96322 136.353328 
L 436.438569 135.812462 
L 439.913919 135.271596 
L 443.389269 134.73073 
L 446.864619 134.189864 
L 450.339968 133.648998 
L 453.815318 133.108132 
L 457.290668 132.567267 
" clip-path="url(#p158a773f6f)" style="fill: none; stroke: #a6761d; stroke-width: 1.5; stroke-linecap: round"/>
   </g>
   <g id="line2d_16">
    <path d="M 423.657791 42.411456 
L 423.801917 42.241605 
L 423.946043 42.071754 
L 424.09017 41.901904 
L 424.234296 41.732053 
L 424.378422 41.562202 
L 424.522548 41.392351 
L 424.666674 41.2225 
L 424.810801 41.052649 
L 424.954927 40.882798 
L 425.099053 40.712947 
L 425.243179 40.543096 
L 425.387305 40.373245 
L 425.531432 40.203394 
L 425.675558 40.033543 
L 425.819684 39.863692 
L 425.96381 39.693841 
L 426.107936 39.52399 
L 426.252063 39.354139 
L 426.396189 39.184288 
L 426.540315 39.014437 
L 426.684441 38.844586 
L 426.828567 38.674735 
L 426.972694 38.504884 
L 427.11682 38.335033 
L 427.260946 38.165182 
L 427.405072 37.995331 
L 427.549198 37.82548 
L 427.693325 37.655629 
L 427.837451 37.485778 
L 427.981577 37.315927 
L 428.125703 37.146076 
L 428.269829 36.976225 
L 428.413955 36.806374 
L 428.558082 36.636523 
L 428.702208 36.466672 
L 428.846334 36.296821 
L 428.99046 36.12697 
L 429.134586 35.957119 
L 429.278713 35.787268 
L 429.422839 35.617417 
L 429.566965 35.447567 
L 429.711091 35.277716 
L 429.855217 35.107865 
L 429.999344 34.938014 
L 430.14347 34.768163 
L 430.287596 34.598312 
L 430.431722 34.428461 
L 430.575848 34.25861 
L 430.719975 34.088759 
L 430.864101 33.918908 
L 431.008227 33.749057 
L 431.152353 33.579206 
L 431.296479 33.409355 
L 431.440606 33.239504 
L 431.584732 33.069653 
L 431.728858 32.899802 
L 431.872984 32.729951 
L 432.01711 32.5601 
L 432.161237 32.390249 
L 432.305363 32.220398 
L 432.449489 32.050547 
L 432.593615 31.880696 
L 432.737741 31.710845 
L 432.881867 31.540994 
L 433.025994 31.371143 
L 433.17012 31.201292 
L 433.314246 31.031441 
L 433.458372 30.86159 
L 433.602498 30.691739 
L 433.746625 30.521888 
L 433.890751 30.352037 
L 434.034877 30.182186 
L 434.179003 30.012335 
L 434.323129 29.842484 
L 434.467256 29.672633 
L 434.611382 29.502782 
L 434.755508 29.332931 
L 434.899634 29.16308 
L 435.04376 28.993229 
L 435.187887 28.823379 
L 435.332013 28.653528 
L 435.476139 28.483677 
L 435.620265 28.313826 
L 435.764391 28.143975 
L 435.908518 27.974124 
L 436.052644 27.804273 
L 436.19677 27.634422 
L 436.340896 27.464571 
L 436.485022 27.29472 
L 436.629149 27.124869 
L 436.773275 26.955018 
L 436.917401 26.785167 
L 437.061527 26.615316 
L 437.205653 26.445465 
L 437.349779 26.275614 
L 437.493906 26.105763 
L 437.638032 25.935912 
L 437.782158 25.766061 
L 437.926284 25.59621 
" clip-path="url(#p158a773f6f)" style="fill: none; stroke: #d95f02; stroke-width: 1.5; stroke-linecap: round"/>
   </g>
   <g id="patch_3">
    <path d="M 62.86875 224.64 
L 62.86875 7.2 
" style="fill: none; stroke: #cccccc; stroke-width: 0.8; stroke-linejoin: miter; stroke-linecap: square"/>
   </g>
   <g id="patch_4">
    <path d="M 453.46875 224.64 
L 453.46875 7.2 
" style="fill: none; stroke: #cccccc; stroke-width: 0.8; stroke-linejoin: miter; stroke-linecap: square"/>
   </g>
   <g id="patch_5">
    <path d="M 62.86875 224.64 
L 453.46875 224.64 
" style="fill: none; stroke: #cccccc; stroke-width: 0.8; stroke-linejoin: miter; stroke-linecap: square"/>
   </g>
   <g id="patch_6">
    <path d="M 62.86875 7.2 
L 453.46875 7.2 
" style="fill: none; stroke: #cccccc; stroke-width: 0.8; stroke-linejoin: miter; stroke-linecap: square"/>
   </g>
   <g id="legend_1">
    <g id="patch_7">
     <path d="M 69.86875 73.9125 
L 196.092187 73.9125 
Q 198.092187 73.9125 198.092187 71.9125 
L 198.092187 14.2 
Q 198.092187 12.2 196.092187 12.2 
L 69.86875 12.2 
Q 67.86875 12.2 67.86875 14.2 
L 67.86875 71.9125 
Q 67.86875 73.9125 69.86875 73.9125 
z
" style="fill: #ffffff; opacity: 0.8; stroke: #cccccc; stroke-linejoin: miter"/>
    </g>
    <g id="line2d_17">
     <path d="M 71.86875 20.298437 
L 81.86875 20.298437 
L 91.86875 20.298437 
" style="fill: none; stroke: #e7298a; stroke-width: 1.5; stroke-linecap: round"/>
    </g>
    <g id="text_15">
     <!-- Global human -->
     <g style="fill: #262626" transform="translate(99.86875 23.798437)scale(0.1 -0.1)">
      <defs>
       <path id="DejaVuSans-47" d="M 3809 666 
L 3809 1919 
L 2778 1919 
L 2778 2438 
L 4434 2438 
L 4434 434 
Q 4069 175 3628 42 
Q 3188 -91 2688 -91 
Q 1594 -91 976 548 
Q 359 1188 359 2328 
Q 359 3472 976 4111 
Q 1594 4750 2688 4750 
Q 3144 4750 3555 4637 
Q 3966 4525 4313 4306 
L 4313 3634 
Q 3963 3931 3569 4081 
Q 3175 4231 2741 4231 
Q 1884 4231 1454 3753 
Q 1025 3275 1025 2328 
Q 1025 1384 1454 906 
Q 1884 428 2741 428 
Q 3075 428 3337 486 
Q 3600 544 3809 666 
z
" transform="scale(0.015625)"/>
       <path id="DejaVuSans-68" d="M 3513 2113 
L 3513 0 
L 2938 0 
L 2938 2094 
Q 2938 2591 2744 2837 
Q 2550 3084 2163 3084 
Q 1697 3084 1428 2787 
Q 1159 2491 1159 1978 
L 1159 0 
L 581 0 
L 581 4863 
L 1159 4863 
L 1159 2956 
Q 1366 3272 1645 3428 
Q 1925 3584 2291 3584 
Q 2894 3584 3203 3211 
Q 3513 2838 3513 2113 
z
" transform="scale(0.015625)"/>
       <path id="DejaVuSans-6d" d="M 3328 2828 
Q 3544 3216 3844 3400 
Q 4144 3584 4550 3584 
Q 5097 3584 5394 3201 
Q 5691 2819 5691 2113 
L 5691 0 
L 5113 0 
L 5113 2094 
Q 5113 2597 4934 2840 
Q 4756 3084 4391 3084 
Q 3944 3084 3684 2787 
Q 3425 2491 3425 1978 
L 3425 0 
L 2847 0 
L 2847 2094 
Q 2847 2600 2669 2842 
Q 2491 3084 2119 3084 
Q 1678 3084 1418 2786 
Q 1159 2488 1159 1978 
L 1159 0 
L 581 0 
L 581 3500 
L 1159 3500 
L 1159 2956 
Q 1356 3278 1631 3431 
Q 1906 3584 2284 3584 
Q 2666 3584 2933 3390 
Q 3200 3197 3328 2828 
z
" transform="scale(0.015625)"/>
      </defs>
      <use xlink:href="#DejaVuSans-47"/>
      <use xlink:href="#DejaVuSans-6c" x="77.490234"/>
      <use xlink:href="#DejaVuSans-6f" x="105.273438"/>
      <use xlink:href="#DejaVuSans-62" x="166.455078"/>
      <use xlink:href="#DejaVuSans-61" x="229.931641"/>
      <use xlink:href="#DejaVuSans-6c" x="291.210938"/>
      <use xlink:href="#DejaVuSans-20" x="318.994141"/>
      <use xlink:href="#DejaVuSans-68" x="350.78125"/>
      <use xlink:href="#DejaVuSans-75" x="414.160156"/>
      <use xlink:href="#DejaVuSans-6d" x="477.539062"/>
      <use xlink:href="#DejaVuSans-61" x="574.951172"/>
      <use xlink:href="#DejaVuSans-6e" x="636.230469"/>
     </g>
    </g>
    <g id="line2d_18">
     <path d="M 71.86875 34.976562 
L 81.86875 34.976562 
L 91.86875 34.976562 
" style="fill: none; stroke: #66a61e; stroke-width: 1.5; stroke-linecap: round"/>
    </g>
    <g id="text_16">
     <!-- Global animal -->
     <g style="fill: #262626" transform="translate(99.86875 38.476562)scale(0.1 -0.1)">
      <use xlink:href="#DejaVuSans-47"/>
      <use xlink:href="#DejaVuSans-6c" x="77.490234"/>
      <use xlink:href="#DejaVuSans-6f" x="105.273438"/>
      <use xlink:href="#DejaVuSans-62" x="166.455078"/>
      <use xlink:href="#DejaVuSans-61" x="229.931641"/>
      <use xlink:href="#DejaVuSans-6c" x="291.210938"/>
      <use xlink:href="#DejaVuSans-20" x="318.994141"/>
      <use xlink:href="#DejaVuSans-61" x="350.78125"/>
      <use xlink:href="#DejaVuSans-6e" x="412.060547"/>
      <use xlink:href="#DejaVuSans-69" x="475.439453"/>
      <use xlink:href="#DejaVuSans-6d" x="503.222656"/>
      <use xlink:href="#DejaVuSans-61" x="600.634766"/>
      <use xlink:href="#DejaVuSans-6c" x="661.914062"/>
     </g>
    </g>
    <g id="line2d_19">
     <path d="M 71.86875 49.654687 
L 81.86875 49.654687 
L 91.86875 49.654687 
" style="fill: none; stroke: #a6761d; stroke-width: 1.5; stroke-linecap: round"/>
    </g>
    <g id="text_17">
     <!-- B.1 lineage -->
     <g style="fill: #262626" transform="translate(99.86875 53.154687)scale(0.1 -0.1)">
      <defs>
       <path id="DejaVuSans-42" d="M 1259 2228 
L 1259 519 
L 2272 519 
Q 2781 519 3026 730 
Q 3272 941 3272 1375 
Q 3272 1813 3026 2020 
Q 2781 2228 2272 2228 
L 1259 2228 
z
M 1259 4147 
L 1259 2741 
L 2194 2741 
Q 2656 2741 2882 2914 
Q 3109 3088 3109 3444 
Q 3109 3797 2882 3972 
Q 2656 4147 2194 4147 
L 1259 4147 
z
M 628 4666 
L 2241 4666 
Q 2963 4666 3353 4366 
Q 3744 4066 3744 3513 
Q 3744 3084 3544 2831 
Q 3344 2578 2956 2516 
Q 3422 2416 3680 2098 
Q 3938 1781 3938 1306 
Q 3938 681 3513 340 
Q 3088 0 2303 0 
L 628 0 
L 628 4666 
z
" transform="scale(0.015625)"/>
       <path id="DejaVuSans-67" d="M 2906 1791 
Q 2906 2416 2648 2759 
Q 2391 3103 1925 3103 
Q 1463 3103 1205 2759 
Q 947 2416 947 1791 
Q 947 1169 1205 825 
Q 1463 481 1925 481 
Q 2391 481 2648 825 
Q 2906 1169 2906 1791 
z
M 3481 434 
Q 3481 -459 3084 -895 
Q 2688 -1331 1869 -1331 
Q 1566 -1331 1297 -1286 
Q 1028 -1241 775 -1147 
L 775 -588 
Q 1028 -725 1275 -790 
Q 1522 -856 1778 -856 
Q 2344 -856 2625 -561 
Q 2906 -266 2906 331 
L 2906 616 
Q 2728 306 2450 153 
Q 2172 0 1784 0 
Q 1141 0 747 490 
Q 353 981 353 1791 
Q 353 2603 747 3093 
Q 1141 3584 1784 3584 
Q 2172 3584 2450 3431 
Q 2728 3278 2906 2969 
L 2906 3500 
L 3481 3500 
L 3481 434 
z
" transform="scale(0.015625)"/>
      </defs>
      <use xlink:href="#DejaVuSans-42"/>
      <use xlink:href="#DejaVuSans-2e" x="68.603516"/>
      <use xlink:href="#DejaVuSans-31" x="100.390625"/>
      <use xlink:href="#DejaVuSans-20" x="164.013672"/>
      <use xlink:href="#DejaVuSans-6c" x="195.800781"/>
      <use xlink:href="#DejaVuSans-69" x="223.583984"/>
      <use xlink:href="#DejaVuSans-6e" x="251.367188"/>
      <use xlink:href="#DejaVuSans-65" x="314.746094"/>
      <use xlink:href="#DejaVuSans-61" x="376.269531"/>
      <use xlink:href="#DejaVuSans-67" x="437.548828"/>
      <use xlink:href="#DejaVuSans-65" x="501.025391"/>
     </g>
    </g>
    <g id="line2d_20">
     <path d="M 71.86875 64.332812 
L 81.86875 64.332812 
L 91.86875 64.332812 
" style="fill: none; stroke: #d95f02; stroke-width: 1.5; stroke-linecap: round"/>
    </g>
    <g id="text_18">
     <!-- Ontario WTD clade -->
     <g style="fill: #262626" transform="translate(99.86875 67.832812)scale(0.1 -0.1)">
      <defs>
       <path id="DejaVuSans-4f" d="M 2522 4238 
Q 1834 4238 1429 3725 
Q 1025 3213 1025 2328 
Q 1025 1447 1429 934 
Q 1834 422 2522 422 
Q 3209 422 3611 934 
Q 4013 1447 4013 2328 
Q 4013 3213 3611 3725 
Q 3209 4238 2522 4238 
z
M 2522 4750 
Q 3503 4750 4090 4092 
Q 4678 3434 4678 2328 
Q 4678 1225 4090 567 
Q 3503 -91 2522 -91 
Q 1538 -91 948 565 
Q 359 1222 359 2328 
Q 359 3434 948 4092 
Q 1538 4750 2522 4750 
z
" transform="scale(0.015625)"/>
       <path id="DejaVuSans-57" d="M 213 4666 
L 850 4666 
L 1831 722 
L 2809 4666 
L 3519 4666 
L 4500 722 
L 5478 4666 
L 6119 4666 
L 4947 0 
L 4153 0 
L 3169 4050 
L 2175 0 
L 1381 0 
L 213 4666 
z
" transform="scale(0.015625)"/>
       <path id="DejaVuSans-54" d="M -19 4666 
L 3928 4666 
L 3928 4134 
L 2272 4134 
L 2272 0 
L 1638 0 
L 1638 4134 
L -19 4134 
L -19 4666 
z
" transform="scale(0.015625)"/>
       <path id="DejaVuSans-64" d="M 2906 2969 
L 2906 4863 
L 3481 4863 
L 3481 0 
L 2906 0 
L 2906 525 
Q 2725 213 2448 61 
Q 2172 -91 1784 -91 
Q 1150 -91 751 415 
Q 353 922 353 1747 
Q 353 2572 751 3078 
Q 1150 3584 1784 3584 
Q 2172 3584 2448 3432 
Q 2725 3281 2906 2969 
z
M 947 1747 
Q 947 1113 1208 752 
Q 1469 391 1925 391 
Q 2381 391 2643 752 
Q 2906 1113 2906 1747 
Q 2906 2381 2643 2742 
Q 2381 3103 1925 3103 
Q 1469 3103 1208 2742 
Q 947 2381 947 1747 
z
" transform="scale(0.015625)"/>
      </defs>
      <use xlink:href="#DejaVuSans-4f"/>
      <use xlink:href="#DejaVuSans-6e" x="78.710938"/>
      <use xlink:href="#DejaVuSans-74" x="142.089844"/>
      <use xlink:href="#DejaVuSans-61" x="181.298828"/>
      <use xlink:href="#DejaVuSans-72" x="242.578125"/>
      <use xlink:href="#DejaVuSans-69" x="283.691406"/>
      <use xlink:href="#DejaVuSans-6f" x="311.474609"/>
      <use xlink:href="#DejaVuSans-20" x="372.65625"/>
      <use xlink:href="#DejaVuSans-57" x="404.443359"/>
      <use xlink:href="#DejaVuSans-54" x="503.320312"/>
      <use xlink:href="#DejaVuSans-44" x="564.404297"/>
      <use xlink:href="#DejaVuSans-20" x="641.40625"/>
      <use xlink:href="#DejaVuSans-63" x="673.193359"/>
      <use xlink:href="#DejaVuSans-6c" x="728.173828"/>
      <use xlink:href="#DejaVuSans-61" x="755.957031"/>
      <use xlink:href="#DejaVuSans-64" x="817.236328"/>
      <use xlink:href="#DejaVuSans-65" x="880.712891"/>
     </g>
    </g>
   </g>
  </g>
 </g>
 <defs>
  <clipPath id="p158a773f6f">
   <rect x="62.86875" y="7.2" width="390.6" height="217.44"/>
  </clipPath>
 </defs>
</svg>
