<?xml version="1.0" encoding="utf-8" standalone="no"?>
<!DOCTYPE svg PUBLIC "-//W3C//DTD SVG 1.1//EN"
  "http://www.w3.org/Graphics/SVG/1.1/DTD/svg11.dtd">
<svg xmlns:xlink="http://www.w3.org/1999/xlink" width="1440pt" height="302.4pt" viewBox="0 0 1440 302.4" xmlns="http://www.w3.org/2000/svg" version="1.1">
 <metadata>
  <rdf:RDF xmlns:dc="http://purl.org/dc/elements/1.1/" xmlns:cc="http://creativecommons.org/ns#" xmlns:rdf="http://www.w3.org/1999/02/22-rdf-syntax-ns#">
   <cc:Work>
    <dc:type rdf:resource="http://purl.org/dc/dcmitype/StillImage"/>
    <dc:date>2022-02-21T14:05:09.100942</dc:date>
    <dc:format>image/svg+xml</dc:format>
    <dc:creator>
     <cc:Agent>
      <dc:title>Matplotlib v3.5.1, https://matplotlib.org/</dc:title>
     </cc:Agent>
    </dc:creator>
   </cc:Work>
  </rdf:RDF>
 </metadata>
 <defs>
  <style type="text/css">*{stroke-linejoin: round; stroke-linecap: butt}</style>
 </defs>
 <g id="figure_1">
  <g id="patch_1">
   <path d="M 0 302.4 
L 1440 302.4 
L 1440 0 
L 0 0 
z
" style="fill: #ffffff"/>
  </g>
  <g id="axes_1">
   <g id="line2d_1">
    <path d="M 180 251.169882 
L 1296 251.169882 
" clip-path="url(#p0c5b85d72d)" style="fill: none; stroke: #000000; stroke-width: 1.5; stroke-linecap: round"/>
   </g>
   <g id="line2d_2">
    <path d="M 1008.325063 143.728941 
L 1008.325063 224.309647 
" clip-path="url(#p0c5b85d72d)" style="fill: none; stroke: #000000; stroke-width: 0.5; stroke-linecap: round"/>
   </g>
   <g id="line2d_3">
    <path d="M 1216.43593 197.449412 
L 1216.43593 224.309647 
" clip-path="url(#p0c5b85d72d)" style="fill: none; stroke: #000000; stroke-width: 0.5; stroke-linecap: round"/>
   </g>
   <g id="line2d_4">
    <path d="M 904.488693 143.728941 
L 904.488693 224.309647 
" clip-path="url(#p0c5b85d72d)" style="fill: none; stroke: #000000; stroke-width: 0.5; stroke-linecap: round"/>
   </g>
   <g id="line2d_5">
    <path d="M 920.699435 170.589176 
L 920.699435 197.449412 
" clip-path="url(#p0c5b85d72d)" style="fill: none; stroke: #000000; stroke-width: 0.5; stroke-linecap: round"/>
   </g>
   <g id="line2d_6">
    <path d="M 1252.800565 170.589176 
L 1252.800565 224.309647 
" clip-path="url(#p0c5b85d72d)" style="fill: none; stroke: #000000; stroke-width: 0.5; stroke-linecap: round"/>
   </g>
   <g id="line2d_7">
    <path d="M 306.443781 170.589176 
L 306.443781 197.449412 
" clip-path="url(#p0c5b85d72d)" style="fill: none; stroke: #000000; stroke-width: 0.5; stroke-linecap: round"/>
   </g>
   <g id="line2d_8">
    <path d="M 780.936558 197.449412 
L 780.936558 224.309647 
" clip-path="url(#p0c5b85d72d)" style="fill: none; stroke: #000000; stroke-width: 0.5; stroke-linecap: round"/>
   </g>
   <g id="line2d_9">
    <path d="M 199.540515 63.148235 
L 199.540515 197.449412 
" clip-path="url(#p0c5b85d72d)" style="fill: none; stroke: #000000; stroke-width: 0.5; stroke-linecap: round"/>
   </g>
   <g id="line2d_10">
    <path d="M 208.303078 116.868706 
L 208.303078 197.449412 
" clip-path="url(#p0c5b85d72d)" style="fill: none; stroke: #000000; stroke-width: 0.5; stroke-linecap: round"/>
   </g>
   <g id="line2d_11">
    <path d="M 217.941897 143.728941 
L 217.941897 197.449412 
" clip-path="url(#p0c5b85d72d)" style="fill: none; stroke: #000000; stroke-width: 0.5; stroke-linecap: round"/>
   </g>
   <g id="line2d_12">
    <path d="M 223.199435 170.589176 
L 223.199435 197.449412 
" clip-path="url(#p0c5b85d72d)" style="fill: none; stroke: #000000; stroke-width: 0.5; stroke-linecap: round"/>
   </g>
   <g id="line2d_13">
    <path d="M 228.456972 90.008471 
L 228.456972 197.449412 
" clip-path="url(#p0c5b85d72d)" style="fill: none; stroke: #000000; stroke-width: 0.5; stroke-linecap: round"/>
   </g>
   <g id="line2d_14">
    <path d="M 263.507224 143.728941 
L 263.507224 197.449412 
" clip-path="url(#p0c5b85d72d)" style="fill: none; stroke: #000000; stroke-width: 0.5; stroke-linecap: round"/>
   </g>
   <g id="line2d_15">
    <path d="M 396.698178 170.589176 
L 396.698178 197.449412 
" clip-path="url(#p0c5b85d72d)" style="fill: none; stroke: #000000; stroke-width: 0.5; stroke-linecap: round"/>
   </g>
   <g id="line2d_16">
    <path d="M 448.397299 197.449412 
L 448.397299 224.309647 
" clip-path="url(#p0c5b85d72d)" style="fill: none; stroke: #000000; stroke-width: 0.5; stroke-linecap: round"/>
   </g>
   <g id="line2d_17">
    <path d="M 606.12343 143.728941 
L 606.12343 197.449412 
" clip-path="url(#p0c5b85d72d)" style="fill: none; stroke: #000000; stroke-width: 0.5; stroke-linecap: round"/>
   </g>
   <g id="line2d_18">
    <path d="M 619.267274 170.589176 
L 619.267274 197.449412 
" clip-path="url(#p0c5b85d72d)" style="fill: none; stroke: #000000; stroke-width: 0.5; stroke-linecap: round"/>
   </g>
   <g id="line2d_19">
    <path d="M 716.531721 116.868706 
L 716.531721 224.309647 
" clip-path="url(#p0c5b85d72d)" style="fill: none; stroke: #000000; stroke-width: 0.5; stroke-linecap: round"/>
   </g>
   <g id="line2d_20">
    <path d="M 717.407977 170.589176 
L 717.407977 224.309647 
" clip-path="url(#p0c5b85d72d)" style="fill: none; stroke: #000000; stroke-width: 0.5; stroke-linecap: round"/>
   </g>
   <g id="line2d_21">
    <path d="M 718.284234 143.728941 
L 718.284234 224.309647 
" clip-path="url(#p0c5b85d72d)" style="fill: none; stroke: #000000; stroke-width: 0.5; stroke-linecap: round"/>
   </g>
   <g id="line2d_22">
    <path d="M 798.023555 170.589176 
L 798.023555 224.309647 
" clip-path="url(#p0c5b85d72d)" style="fill: none; stroke: #000000; stroke-width: 0.5; stroke-linecap: round"/>
   </g>
   <g id="line2d_23">
    <path d="M 858.485239 197.449412 
L 858.485239 224.309647 
" clip-path="url(#p0c5b85d72d)" style="fill: none; stroke: #000000; stroke-width: 0.5; stroke-linecap: round"/>
   </g>
   <g id="line2d_24">
    <path d="M 900.54554 116.868706 
L 900.54554 197.449412 
" clip-path="url(#p0c5b85d72d)" style="fill: none; stroke: #000000; stroke-width: 0.5; stroke-linecap: round"/>
   </g>
   <g id="line2d_25">
    <path d="M 1020.592651 170.589176 
L 1020.592651 197.449412 
" clip-path="url(#p0c5b85d72d)" style="fill: none; stroke: #000000; stroke-width: 0.5; stroke-linecap: round"/>
   </g>
   <g id="line2d_26">
    <path d="M 1288.727073 197.449412 
L 1288.727073 224.309647 
" clip-path="url(#p0c5b85d72d)" style="fill: none; stroke: #000000; stroke-width: 0.5; stroke-linecap: round"/>
   </g>
   <g id="patch_2">
    <path d="M 180.262877 244.169882 
Q 737.997872 244.169882 1295.732868 244.169882 
L 1295.732868 244.169882 
Q 1295.734996 247.669882 1295.737123 251.169882 
Q 1295.734996 254.669882 1295.732868 258.169882 
L 1295.732868 258.169882 
Q 737.997872 258.169882 180.262877 258.169882 
L 180.262877 244.169882 
z
" clip-path="url(#p0c5b85d72d)" style="fill: #56b4e9; stroke: #000000; stroke-linecap: round"/>
   </g>
   <g id="patch_3">
    <path d="M 192.530465 217.309647 
Q 319.147565 217.309647 445.764666 217.309647 
L 445.764666 217.309647 
Q 445.766598 220.809647 445.76853 224.309647 
Q 445.766598 227.809647 445.764666 231.309647 
L 445.764666 231.309647 
Q 319.147565 231.309647 192.530465 231.309647 
L 192.530465 217.309647 
z
" clip-path="url(#p0c5b85d72d)" style="fill: #0173b2; stroke: #000000; stroke-linecap: round"/>
   </g>
   <g id="patch_4">
    <path d="M 459.788631 217.309647 
Q 557.051594 217.309647 654.314557 217.309647 
L 654.314557 217.309647 
Q 654.316041 220.809647 654.317525 224.309647 
Q 654.316041 227.809647 654.314557 231.309647 
L 654.314557 231.309647 
Q 557.051594 231.309647 459.788631 231.309647 
L 459.788631 217.309647 
z
" clip-path="url(#p0c5b85d72d)" style="fill: #0173b2; stroke: #000000; stroke-linecap: round"/>
   </g>
   <g id="patch_5">
    <path d="M 986.418656 217.309647 
Q 1008.323726 217.309647 1030.228796 217.309647 
L 1030.228796 217.309647 
Q 1030.230133 220.809647 1030.23147 224.309647 
Q 1030.230133 227.809647 1030.228796 231.309647 
L 1030.228796 231.309647 
Q 1008.323726 231.309647 986.418656 231.309647 
L 986.418656 217.309647 
z
" clip-path="url(#p0c5b85d72d)" style="fill: #0173b2; stroke: #000000; stroke-linecap: round"/>
   </g>
   <g id="patch_6">
    <path d="M 1199.348932 217.309647 
Q 1216.433844 217.309647 1233.518756 217.309647 
L 1233.518756 217.309647 
Q 1233.520841 220.809647 1233.522927 224.309647 
Q 1233.520841 227.809647 1233.518756 231.309647 
L 1233.518756 231.309647 
Q 1216.433844 231.309647 1199.348932 231.309647 
L 1199.348932 217.309647 
z
" clip-path="url(#p0c5b85d72d)" style="fill: #0173b2; stroke: #000000; stroke-linecap: round"/>
   </g>
   <g id="patch_7">
    <path d="M 895.288003 217.309647 
Q 904.486447 217.309647 913.684892 217.309647 
L 913.684892 217.309647 
Q 913.687138 220.809647 913.689384 224.309647 
Q 913.687138 227.809647 913.684892 231.309647 
L 913.684892 231.309647 
Q 904.486447 231.309647 895.288003 231.309647 
L 895.288003 217.309647 
z
" clip-path="url(#p0c5b85d72d)" style="fill: #0173b2; stroke: #000000; stroke-linecap: round"/>
   </g>
   <g id="patch_8">
    <path d="M 911.936872 190.449412 
Q 920.697295 190.449412 929.457719 190.449412 
L 929.457719 190.449412 
Q 929.459858 193.949412 929.461997 197.449412 
Q 929.459858 200.949412 929.457719 204.449412 
L 929.457719 204.449412 
Q 920.697295 204.449412 911.936872 204.449412 
L 911.936872 190.449412 
z
" clip-path="url(#p0c5b85d72d)" style="fill: #0173b2; stroke: #000000; stroke-linecap: round"/>
   </g>
   <g id="patch_9">
    <path d="M 1244.038003 217.309647 
Q 1252.798426 217.309647 1261.55885 217.309647 
L 1261.55885 217.309647 
Q 1261.560989 220.809647 1261.563128 224.309647 
Q 1261.560989 227.809647 1261.55885 231.309647 
L 1261.55885 231.309647 
Q 1252.798426 231.309647 1244.038003 231.309647 
L 1244.038003 217.309647 
z
" clip-path="url(#p0c5b85d72d)" style="fill: #0173b2; stroke: #000000; stroke-linecap: round"/>
   </g>
   <g id="patch_10">
    <path d="M 305.567525 190.449412 
Q 306.44207 190.449412 307.316615 190.449412 
L 307.316615 190.449412 
Q 307.318326 193.949412 307.320038 197.449412 
Q 307.318326 200.949412 307.316615 204.449412 
L 307.316615 204.449412 
Q 306.44207 204.449412 305.567525 204.449412 
L 305.567525 190.449412 
z
" clip-path="url(#p0c5b85d72d)" style="fill: #d95f02; stroke: #000000; stroke-linecap: round"/>
   </g>
   <g id="patch_11">
    <path d="M 780.49843 217.309647 
Q 780.934846 217.309647 781.371263 217.309647 
L 781.371263 217.309647 
Q 781.372974 220.809647 781.374686 224.309647 
Q 781.372974 227.809647 781.371263 231.309647 
L 781.371263 231.309647 
Q 780.934846 231.309647 780.49843 231.309647 
L 780.49843 217.309647 
z
" clip-path="url(#p0c5b85d72d)" style="fill: #0173b2; stroke: #000000; stroke-linecap: round"/>
   </g>
   <g id="patch_12">
    <path d="M 199.540515 197.449412 
Q 199.540515 197.449412 199.540515 197.449412 
L 199.540515 197.449412 
Q 199.540515 197.449412 199.540515 197.449412 
Q 199.540515 197.449412 199.540515 197.449412 
L 199.540515 197.449412 
Q 199.540515 197.449412 199.540515 197.449412 
L 199.540515 197.449412 
z
" clip-path="url(#p0c5b85d72d)" style="fill: #7570b3; stroke: #000000; stroke-linecap: round"/>
   </g>
   <g id="patch_13">
    <path d="M 208.303078 197.449412 
Q 208.303078 197.449412 208.303078 197.449412 
L 208.303078 197.449412 
Q 208.303078 197.449412 208.303078 197.449412 
Q 208.303078 197.449412 208.303078 197.449412 
L 208.303078 197.449412 
Q 208.303078 197.449412 208.303078 197.449412 
L 208.303078 197.449412 
z
" clip-path="url(#p0c5b85d72d)" style="fill: #7570b3; stroke: #000000; stroke-linecap: round"/>
   </g>
   <g id="patch_14">
    <path d="M 217.941897 197.449412 
Q 217.941897 197.449412 217.941897 197.449412 
L 217.941897 197.449412 
Q 217.941897 197.449412 217.941897 197.449412 
Q 217.941897 197.449412 217.941897 197.449412 
L 217.941897 197.449412 
Q 217.941897 197.449412 217.941897 197.449412 
L 217.941897 197.449412 
z
" clip-path="url(#p0c5b85d72d)" style="fill: #7570b3; stroke: #000000; stroke-linecap: round"/>
   </g>
   <g id="patch_15">
    <path d="M 223.199435 197.449412 
Q 223.199435 197.449412 223.199435 197.449412 
L 223.199435 197.449412 
Q 223.199435 197.449412 223.199435 197.449412 
Q 223.199435 197.449412 223.199435 197.449412 
L 223.199435 197.449412 
Q 223.199435 197.449412 223.199435 197.449412 
L 223.199435 197.449412 
z
" clip-path="url(#p0c5b85d72d)" style="fill: #d95f02; stroke: #000000; stroke-linecap: round"/>
   </g>
   <g id="patch_16">
    <path d="M 228.456972 197.449412 
Q 228.456972 197.449412 228.456972 197.449412 
L 228.456972 197.449412 
Q 228.456972 197.449412 228.456972 197.449412 
Q 228.456972 197.449412 228.456972 197.449412 
L 228.456972 197.449412 
Q 228.456972 197.449412 228.456972 197.449412 
L 228.456972 197.449412 
z
" clip-path="url(#p0c5b85d72d)" style="fill: #d95f02; stroke: #000000; stroke-linecap: round"/>
   </g>
   <g id="patch_17">
    <path d="M 263.507224 197.449412 
Q 263.507224 197.449412 263.507224 197.449412 
L 263.507224 197.449412 
Q 263.507224 197.449412 263.507224 197.449412 
Q 263.507224 197.449412 263.507224 197.449412 
L 263.507224 197.449412 
Q 263.507224 197.449412 263.507224 197.449412 
L 263.507224 197.449412 
z
" clip-path="url(#p0c5b85d72d)" style="fill: #d95f02; stroke: #000000; stroke-linecap: round"/>
   </g>
   <g id="patch_18">
    <path d="M 396.698178 197.449412 
Q 396.698178 197.449412 396.698178 197.449412 
L 396.698178 197.449412 
Q 396.698178 197.449412 396.698178 197.449412 
Q 396.698178 197.449412 396.698178 197.449412 
L 396.698178 197.449412 
Q 396.698178 197.449412 396.698178 197.449412 
L 396.698178 197.449412 
z
" clip-path="url(#p0c5b85d72d)" style="fill: #7570b3; stroke: #000000; stroke-linecap: round"/>
   </g>
   <g id="patch_19">
    <path d="M 448.397299 224.309647 
Q 448.397299 224.309647 448.397299 224.309647 
L 448.397299 224.309647 
Q 448.397299 224.309647 448.397299 224.309647 
Q 448.397299 224.309647 448.397299 224.309647 
L 448.397299 224.309647 
Q 448.397299 224.309647 448.397299 224.309647 
L 448.397299 224.309647 
z
" clip-path="url(#p0c5b85d72d)" style="fill: #7570b3; stroke: #000000; stroke-linecap: round"/>
   </g>
   <g id="patch_20">
    <path d="M 606.12343 197.449412 
Q 606.12343 197.449412 606.12343 197.449412 
L 606.12343 197.449412 
Q 606.12343 197.449412 606.12343 197.449412 
Q 606.12343 197.449412 606.12343 197.449412 
L 606.12343 197.449412 
Q 606.12343 197.449412 606.12343 197.449412 
L 606.12343 197.449412 
z
" clip-path="url(#p0c5b85d72d)" style="fill: #d95f02; stroke: #000000; stroke-linecap: round"/>
   </g>
   <g id="patch_21">
    <path d="M 619.267274 197.449412 
Q 619.267274 197.449412 619.267274 197.449412 
L 619.267274 197.449412 
Q 619.267274 197.449412 619.267274 197.449412 
Q 619.267274 197.449412 619.267274 197.449412 
L 619.267274 197.449412 
Q 619.267274 197.449412 619.267274 197.449412 
L 619.267274 197.449412 
z
" clip-path="url(#p0c5b85d72d)" style="fill: #d95f02; stroke: #000000; stroke-linecap: round"/>
   </g>
   <g id="patch_22">
    <path d="M 716.531721 224.309647 
Q 716.531721 224.309647 716.531721 224.309647 
L 716.531721 224.309647 
Q 716.531721 224.309647 716.531721 224.309647 
Q 716.531721 224.309647 716.531721 224.309647 
L 716.531721 224.309647 
Q 716.531721 224.309647 716.531721 224.309647 
L 716.531721 224.309647 
z
" clip-path="url(#p0c5b85d72d)" style="fill: #d95f02; stroke: #000000; stroke-linecap: round"/>
   </g>
   <g id="patch_23">
    <path d="M 717.407977 224.309647 
Q 717.407977 224.309647 717.407977 224.309647 
L 717.407977 224.309647 
Q 717.407977 224.309647 717.407977 224.309647 
Q 717.407977 224.309647 717.407977 224.309647 
L 717.407977 224.309647 
Q 717.407977 224.309647 717.407977 224.309647 
L 717.407977 224.309647 
z
" clip-path="url(#p0c5b85d72d)" style="fill: #e6ab02; stroke: #000000; stroke-linecap: round"/>
   </g>
   <g id="patch_24">
    <path d="M 718.284234 224.309647 
Q 718.284234 224.309647 718.284234 224.309647 
L 718.284234 224.309647 
Q 718.284234 224.309647 718.284234 224.309647 
Q 718.284234 224.309647 718.284234 224.309647 
L 718.284234 224.309647 
Q 718.284234 224.309647 718.284234 224.309647 
L 718.284234 224.309647 
z
" clip-path="url(#p0c5b85d72d)" style="fill: #d95f02; stroke: #000000; stroke-linecap: round"/>
   </g>
   <g id="patch_25">
    <path d="M 798.023555 224.309647 
Q 798.023555 224.309647 798.023555 224.309647 
L 798.023555 224.309647 
Q 798.023555 224.309647 798.023555 224.309647 
Q 798.023555 224.309647 798.023555 224.309647 
L 798.023555 224.309647 
Q 798.023555 224.309647 798.023555 224.309647 
L 798.023555 224.309647 
z
" clip-path="url(#p0c5b85d72d)" style="fill: #7570b3; stroke: #000000; stroke-linecap: round"/>
   </g>
   <g id="patch_26">
    <path d="M 858.485239 224.309647 
Q 858.485239 224.309647 858.485239 224.309647 
L 858.485239 224.309647 
Q 858.485239 224.309647 858.485239 224.309647 
Q 858.485239 224.309647 858.485239 224.309647 
L 858.485239 224.309647 
Q 858.485239 224.309647 858.485239 224.309647 
L 858.485239 224.309647 
z
" clip-path="url(#p0c5b85d72d)" style="fill: #7570b3; stroke: #000000; stroke-linecap: round"/>
   </g>
   <g id="patch_27">
    <path d="M 900.54554 197.449412 
Q 900.54554 197.449412 900.54554 197.449412 
L 900.54554 197.449412 
Q 900.54554 197.449412 900.54554 197.449412 
Q 900.54554 197.449412 900.54554 197.449412 
L 900.54554 197.449412 
Q 900.54554 197.449412 900.54554 197.449412 
L 900.54554 197.449412 
z
" clip-path="url(#p0c5b85d72d)" style="fill: #d95f02; stroke: #000000; stroke-linecap: round"/>
   </g>
   <g id="patch_28">
    <path d="M 1020.592651 197.449412 
Q 1020.592651 197.449412 1020.592651 197.449412 
L 1020.592651 197.449412 
Q 1020.592651 197.449412 1020.592651 197.449412 
Q 1020.592651 197.449412 1020.592651 197.449412 
L 1020.592651 197.449412 
Q 1020.592651 197.449412 1020.592651 197.449412 
L 1020.592651 197.449412 
z
" clip-path="url(#p0c5b85d72d)" style="fill: #7570b3; stroke: #000000; stroke-linecap: round"/>
   </g>
   <g id="patch_29">
    <path d="M 1288.727073 224.309647 
Q 1288.727073 224.309647 1288.727073 224.309647 
L 1288.727073 224.309647 
Q 1288.727073 224.309647 1288.727073 224.309647 
Q 1288.727073 224.309647 1288.727073 224.309647 
L 1288.727073 224.309647 
Q 1288.727073 224.309647 1288.727073 224.309647 
L 1288.727073 224.309647 
z
" clip-path="url(#p0c5b85d72d)" style="fill: #e6ab02; stroke: #000000; stroke-linecap: round"/>
   </g>
   <g id="text_1">
    <!-- Spike -->
    <g transform="translate(723.119063 254.205195)scale(0.11 -0.11)">
     <defs>
      <path id="DejaVuSans-53" d="M 3425 4513 
L 3425 3897 
Q 3066 4069 2747 4153 
Q 2428 4238 2131 4238 
Q 1616 4238 1336 4038 
Q 1056 3838 1056 3469 
Q 1056 3159 1242 3001 
Q 1428 2844 1947 2747 
L 2328 2669 
Q 3034 2534 3370 2195 
Q 3706 1856 3706 1288 
Q 3706 609 3251 259 
Q 2797 -91 1919 -91 
Q 1588 -91 1214 -16 
Q 841 59 441 206 
L 441 856 
Q 825 641 1194 531 
Q 1563 422 1919 422 
Q 2459 422 2753 634 
Q 3047 847 3047 1241 
Q 3047 1584 2836 1778 
Q 2625 1972 2144 2069 
L 1759 2144 
Q 1053 2284 737 2584 
Q 422 2884 422 3419 
Q 422 4038 858 4394 
Q 1294 4750 2059 4750 
Q 2388 4750 2728 4690 
Q 3069 4631 3425 4513 
z
" transform="scale(0.015625)"/>
      <path id="DejaVuSans-70" d="M 1159 525 
L 1159 -1331 
L 581 -1331 
L 581 3500 
L 1159 3500 
L 1159 2969 
Q 1341 3281 1617 3432 
Q 1894 3584 2278 3584 
Q 2916 3584 3314 3078 
Q 3713 2572 3713 1747 
Q 3713 922 3314 415 
Q 2916 -91 2278 -91 
Q 1894 -91 1617 61 
Q 1341 213 1159 525 
z
M 3116 1747 
Q 3116 2381 2855 2742 
Q 2594 3103 2138 3103 
Q 1681 3103 1420 2742 
Q 1159 2381 1159 1747 
Q 1159 1113 1420 752 
Q 1681 391 2138 391 
Q 2594 391 2855 752 
Q 3116 1113 3116 1747 
z
" transform="scale(0.015625)"/>
      <path id="DejaVuSans-69" d="M 603 3500 
L 1178 3500 
L 1178 0 
L 603 0 
L 603 3500 
z
M 603 4863 
L 1178 4863 
L 1178 4134 
L 603 4134 
L 603 4863 
z
" transform="scale(0.015625)"/>
      <path id="DejaVuSans-6b" d="M 581 4863 
L 1159 4863 
L 1159 1991 
L 2875 3500 
L 3609 3500 
L 1753 1863 
L 3688 0 
L 2938 0 
L 1159 1709 
L 1159 0 
L 581 0 
L 581 4863 
z
" transform="scale(0.015625)"/>
      <path id="DejaVuSans-65" d="M 3597 1894 
L 3597 1613 
L 953 1613 
Q 991 1019 1311 708 
Q 1631 397 2203 397 
Q 2534 397 2845 478 
Q 3156 559 3463 722 
L 3463 178 
Q 3153 47 2828 -22 
Q 2503 -91 2169 -91 
Q 1331 -91 842 396 
Q 353 884 353 1716 
Q 353 2575 817 3079 
Q 1281 3584 2069 3584 
Q 2775 3584 3186 3129 
Q 3597 2675 3597 1894 
z
M 3022 2063 
Q 3016 2534 2758 2815 
Q 2500 3097 2075 3097 
Q 1594 3097 1305 2825 
Q 1016 2553 972 2059 
L 3022 2063 
z
" transform="scale(0.015625)"/>
     </defs>
     <use xlink:href="#DejaVuSans-53"/>
     <use xlink:href="#DejaVuSans-70" x="63.476562"/>
     <use xlink:href="#DejaVuSans-69" x="126.953125"/>
     <use xlink:href="#DejaVuSans-6b" x="154.736328"/>
     <use xlink:href="#DejaVuSans-65" x="209.021484"/>
    </g>
   </g>
   <g id="text_2">
    <!-- NTD -->
    <g style="fill: #ffffff" transform="translate(307.440513 227.34496)scale(0.11 -0.11)">
     <defs>
      <path id="DejaVuSans-4e" d="M 628 4666 
L 1478 4666 
L 3547 763 
L 3547 4666 
L 4159 4666 
L 4159 0 
L 3309 0 
L 1241 3903 
L 1241 0 
L 628 0 
L 628 4666 
z
" transform="scale(0.015625)"/>
      <path id="DejaVuSans-54" d="M -19 4666 
L 3928 4666 
L 3928 4134 
L 2272 4134 
L 2272 0 
L 1638 0 
L 1638 4134 
L -19 4134 
L -19 4666 
z
" transform="scale(0.015625)"/>
      <path id="DejaVuSans-44" d="M 1259 4147 
L 1259 519 
L 2022 519 
Q 2988 519 3436 956 
Q 3884 1394 3884 2338 
Q 3884 3275 3436 3711 
Q 2988 4147 2022 4147 
L 1259 4147 
z
M 628 4666 
L 1925 4666 
Q 3281 4666 3915 4102 
Q 4550 3538 4550 2338 
Q 4550 1131 3912 565 
Q 3275 0 1925 0 
L 628 0 
L 628 4666 
z
" transform="scale(0.015625)"/>
     </defs>
     <use xlink:href="#DejaVuSans-4e"/>
     <use xlink:href="#DejaVuSans-54" x="74.804688"/>
     <use xlink:href="#DejaVuSans-44" x="135.888672"/>
    </g>
   </g>
   <g id="text_3">
    <!-- RBD -->
    <g style="fill: #ffffff" transform="translate(545.222922 227.34496)scale(0.11 -0.11)">
     <defs>
      <path id="DejaVuSans-52" d="M 2841 2188 
Q 3044 2119 3236 1894 
Q 3428 1669 3622 1275 
L 4263 0 
L 3584 0 
L 2988 1197 
Q 2756 1666 2539 1819 
Q 2322 1972 1947 1972 
L 1259 1972 
L 1259 0 
L 628 0 
L 628 4666 
L 2053 4666 
Q 2853 4666 3247 4331 
Q 3641 3997 3641 3322 
Q 3641 2881 3436 2590 
Q 3231 2300 2841 2188 
z
M 1259 4147 
L 1259 2491 
L 2053 2491 
Q 2509 2491 2742 2702 
Q 2975 2913 2975 3322 
Q 2975 3731 2742 3939 
Q 2509 4147 2053 4147 
L 1259 4147 
z
" transform="scale(0.015625)"/>
      <path id="DejaVuSans-42" d="M 1259 2228 
L 1259 519 
L 2272 519 
Q 2781 519 3026 730 
Q 3272 941 3272 1375 
Q 3272 1813 3026 2020 
Q 2781 2228 2272 2228 
L 1259 2228 
z
M 1259 4147 
L 1259 2741 
L 2194 2741 
Q 2656 2741 2882 2914 
Q 3109 3088 3109 3444 
Q 3109 3797 2882 3972 
Q 2656 4147 2194 4147 
L 1259 4147 
z
M 628 4666 
L 2241 4666 
Q 2963 4666 3353 4366 
Q 3744 4066 3744 3513 
Q 3744 3084 3544 2831 
Q 3344 2578 2956 2516 
Q 3422 2416 3680 2098 
Q 3938 1781 3938 1306 
Q 3938 681 3513 340 
Q 3088 0 2303 0 
L 628 0 
L 628 4666 
z
" transform="scale(0.015625)"/>
     </defs>
     <use xlink:href="#DejaVuSans-52"/>
     <use xlink:href="#DejaVuSans-42" x="69.482422"/>
     <use xlink:href="#DejaVuSans-44" x="138.085938"/>
    </g>
   </g>
   <g id="text_4">
    <g id="patch_30">
     <path d="M 988.29475 152.35191 
L 1028.355375 152.35191 
Q 1031.655375 152.35191 1031.655375 149.05191 
L 1031.655375 138.405972 
Q 1031.655375 135.105972 1028.355375 135.105972 
L 988.29475 135.105972 
Q 984.99475 135.105972 984.99475 138.405972 
L 984.99475 149.05191 
Q 984.99475 152.35191 988.29475 152.35191 
z
" style="fill: #e6f6ff; stroke: #808080; stroke-linejoin: miter"/>
    </g>
    <!-- Heptad -->
    <g style="fill: #262626" transform="translate(988.29475 146.764254)scale(0.11 -0.11)">
     <defs>
      <path id="DejaVuSans-48" d="M 628 4666 
L 1259 4666 
L 1259 2753 
L 3553 2753 
L 3553 4666 
L 4184 4666 
L 4184 0 
L 3553 0 
L 3553 2222 
L 1259 2222 
L 1259 0 
L 628 0 
L 628 4666 
z
" transform="scale(0.015625)"/>
      <path id="DejaVuSans-74" d="M 1172 4494 
L 1172 3500 
L 2356 3500 
L 2356 3053 
L 1172 3053 
L 1172 1153 
Q 1172 725 1289 603 
Q 1406 481 1766 481 
L 2356 481 
L 2356 0 
L 1766 0 
Q 1100 0 847 248 
Q 594 497 594 1153 
L 594 3053 
L 172 3053 
L 172 3500 
L 594 3500 
L 594 4494 
L 1172 4494 
z
" transform="scale(0.015625)"/>
      <path id="DejaVuSans-61" d="M 2194 1759 
Q 1497 1759 1228 1600 
Q 959 1441 959 1056 
Q 959 750 1161 570 
Q 1363 391 1709 391 
Q 2188 391 2477 730 
Q 2766 1069 2766 1631 
L 2766 1759 
L 2194 1759 
z
M 3341 1997 
L 3341 0 
L 2766 0 
L 2766 531 
Q 2569 213 2275 61 
Q 1981 -91 1556 -91 
Q 1019 -91 701 211 
Q 384 513 384 1019 
Q 384 1609 779 1909 
Q 1175 2209 1959 2209 
L 2766 2209 
L 2766 2266 
Q 2766 2663 2505 2880 
Q 2244 3097 1772 3097 
Q 1472 3097 1187 3025 
Q 903 2953 641 2809 
L 641 3341 
Q 956 3463 1253 3523 
Q 1550 3584 1831 3584 
Q 2591 3584 2966 3190 
Q 3341 2797 3341 1997 
z
" transform="scale(0.015625)"/>
      <path id="DejaVuSans-64" d="M 2906 2969 
L 2906 4863 
L 3481 4863 
L 3481 0 
L 2906 0 
L 2906 525 
Q 2725 213 2448 61 
Q 2172 -91 1784 -91 
Q 1150 -91 751 415 
Q 353 922 353 1747 
Q 353 2572 751 3078 
Q 1150 3584 1784 3584 
Q 2172 3584 2448 3432 
Q 2725 3281 2906 2969 
z
M 947 1747 
Q 947 1113 1208 752 
Q 1469 391 1925 391 
Q 2381 391 2643 752 
Q 2906 1113 2906 1747 
Q 2906 2381 2643 2742 
Q 2381 3103 1925 3103 
Q 1469 3103 1208 2742 
Q 947 2381 947 1747 
z
" transform="scale(0.015625)"/>
     </defs>
     <use xlink:href="#DejaVuSans-48"/>
     <use xlink:href="#DejaVuSans-65" x="75.195312"/>
     <use xlink:href="#DejaVuSans-70" x="136.71875"/>
     <use xlink:href="#DejaVuSans-74" x="200.195312"/>
     <use xlink:href="#DejaVuSans-61" x="239.404297"/>
     <use xlink:href="#DejaVuSans-64" x="300.683594"/>
    </g>
   </g>
   <g id="text_5">
    <g id="patch_31">
     <path d="M 1196.405617 206.072381 
L 1236.466242 206.072381 
Q 1239.766242 206.072381 1239.766242 202.772381 
L 1239.766242 192.126443 
Q 1239.766242 188.826443 1236.466242 188.826443 
L 1196.405617 188.826443 
Q 1193.105617 188.826443 1193.105617 192.126443 
L 1193.105617 202.772381 
Q 1193.105617 206.072381 1196.405617 206.072381 
z
" style="fill: #e6f6ff; stroke: #808080; stroke-linejoin: miter"/>
    </g>
    <!-- Heptad -->
    <g style="fill: #262626" transform="translate(1196.405617 200.484724)scale(0.11 -0.11)">
     <use xlink:href="#DejaVuSans-48"/>
     <use xlink:href="#DejaVuSans-65" x="75.195312"/>
     <use xlink:href="#DejaVuSans-70" x="136.71875"/>
     <use xlink:href="#DejaVuSans-74" x="200.195312"/>
     <use xlink:href="#DejaVuSans-61" x="239.404297"/>
     <use xlink:href="#DejaVuSans-64" x="300.683594"/>
    </g>
   </g>
   <g id="text_6">
    <g id="patch_32">
     <path d="M 886.898147 152.35191 
L 922.07924 152.35191 
Q 925.37924 152.35191 925.37924 149.05191 
L 925.37924 138.405972 
Q 925.37924 135.105972 922.07924 135.105972 
L 886.898147 135.105972 
Q 883.598147 135.105972 883.598147 138.405972 
L 883.598147 149.05191 
Q 883.598147 152.35191 886.898147 152.35191 
z
" style="fill: #e6f6ff; stroke: #808080; stroke-linejoin: miter"/>
    </g>
    <!-- Fusion -->
    <g style="fill: #262626" transform="translate(886.898147 146.764254)scale(0.11 -0.11)">
     <defs>
      <path id="DejaVuSans-46" d="M 628 4666 
L 3309 4666 
L 3309 4134 
L 1259 4134 
L 1259 2759 
L 3109 2759 
L 3109 2228 
L 1259 2228 
L 1259 0 
L 628 0 
L 628 4666 
z
" transform="scale(0.015625)"/>
      <path id="DejaVuSans-75" d="M 544 1381 
L 544 3500 
L 1119 3500 
L 1119 1403 
Q 1119 906 1312 657 
Q 1506 409 1894 409 
Q 2359 409 2629 706 
Q 2900 1003 2900 1516 
L 2900 3500 
L 3475 3500 
L 3475 0 
L 2900 0 
L 2900 538 
Q 2691 219 2414 64 
Q 2138 -91 1772 -91 
Q 1169 -91 856 284 
Q 544 659 544 1381 
z
M 1991 3584 
L 1991 3584 
z
" transform="scale(0.015625)"/>
      <path id="DejaVuSans-73" d="M 2834 3397 
L 2834 2853 
Q 2591 2978 2328 3040 
Q 2066 3103 1784 3103 
Q 1356 3103 1142 2972 
Q 928 2841 928 2578 
Q 928 2378 1081 2264 
Q 1234 2150 1697 2047 
L 1894 2003 
Q 2506 1872 2764 1633 
Q 3022 1394 3022 966 
Q 3022 478 2636 193 
Q 2250 -91 1575 -91 
Q 1294 -91 989 -36 
Q 684 19 347 128 
L 347 722 
Q 666 556 975 473 
Q 1284 391 1588 391 
Q 1994 391 2212 530 
Q 2431 669 2431 922 
Q 2431 1156 2273 1281 
Q 2116 1406 1581 1522 
L 1381 1569 
Q 847 1681 609 1914 
Q 372 2147 372 2553 
Q 372 3047 722 3315 
Q 1072 3584 1716 3584 
Q 2034 3584 2315 3537 
Q 2597 3491 2834 3397 
z
" transform="scale(0.015625)"/>
      <path id="DejaVuSans-6f" d="M 1959 3097 
Q 1497 3097 1228 2736 
Q 959 2375 959 1747 
Q 959 1119 1226 758 
Q 1494 397 1959 397 
Q 2419 397 2687 759 
Q 2956 1122 2956 1747 
Q 2956 2369 2687 2733 
Q 2419 3097 1959 3097 
z
M 1959 3584 
Q 2709 3584 3137 3096 
Q 3566 2609 3566 1747 
Q 3566 888 3137 398 
Q 2709 -91 1959 -91 
Q 1206 -91 779 398 
Q 353 888 353 1747 
Q 353 2609 779 3096 
Q 1206 3584 1959 3584 
z
" transform="scale(0.015625)"/>
      <path id="DejaVuSans-6e" d="M 3513 2113 
L 3513 0 
L 2938 0 
L 2938 2094 
Q 2938 2591 2744 2837 
Q 2550 3084 2163 3084 
Q 1697 3084 1428 2787 
Q 1159 2491 1159 1978 
L 1159 0 
L 581 0 
L 581 3500 
L 1159 3500 
L 1159 2956 
Q 1366 3272 1645 3428 
Q 1925 3584 2291 3584 
Q 2894 3584 3203 3211 
Q 3513 2838 3513 2113 
z
" transform="scale(0.015625)"/>
     </defs>
     <use xlink:href="#DejaVuSans-46"/>
     <use xlink:href="#DejaVuSans-75" x="52.019531"/>
     <use xlink:href="#DejaVuSans-73" x="115.398438"/>
     <use xlink:href="#DejaVuSans-69" x="167.498047"/>
     <use xlink:href="#DejaVuSans-6f" x="195.28125"/>
     <use xlink:href="#DejaVuSans-6e" x="256.462891"/>
    </g>
   </g>
   <g id="text_7">
    <g id="patch_33">
     <path d="M 903.108888 179.212145 
L 938.289982 179.212145 
Q 941.589982 179.212145 941.589982 175.912145 
L 941.589982 165.266208 
Q 941.589982 161.966208 938.289982 161.966208 
L 903.108888 161.966208 
Q 899.808888 161.966208 899.808888 165.266208 
L 899.808888 175.912145 
Q 899.808888 179.212145 903.108888 179.212145 
z
" style="fill: #e6f6ff; stroke: #808080; stroke-linejoin: miter"/>
    </g>
    <!-- Fusion -->
    <g style="fill: #262626" transform="translate(903.108888 173.624489)scale(0.11 -0.11)">
     <use xlink:href="#DejaVuSans-46"/>
     <use xlink:href="#DejaVuSans-75" x="52.019531"/>
     <use xlink:href="#DejaVuSans-73" x="115.398438"/>
     <use xlink:href="#DejaVuSans-69" x="167.498047"/>
     <use xlink:href="#DejaVuSans-6f" x="195.28125"/>
     <use xlink:href="#DejaVuSans-6e" x="256.462891"/>
    </g>
   </g>
   <g id="text_8">
    <g id="patch_34">
     <path d="M 1244.6958 179.212145 
L 1260.905331 179.212145 
Q 1264.205331 179.212145 1264.205331 175.912145 
L 1264.205331 165.266208 
Q 1264.205331 161.966208 1260.905331 161.966208 
L 1244.6958 161.966208 
Q 1241.3958 161.966208 1241.3958 165.266208 
L 1241.3958 175.912145 
Q 1241.3958 179.212145 1244.6958 179.212145 
z
" style="fill: #e6f6ff; stroke: #808080; stroke-linejoin: miter"/>
    </g>
    <!-- TM -->
    <g style="fill: #262626" transform="translate(1244.6958 173.624489)scale(0.11 -0.11)">
     <defs>
      <path id="DejaVuSans-4d" d="M 628 4666 
L 1569 4666 
L 2759 1491 
L 3956 4666 
L 4897 4666 
L 4897 0 
L 4281 0 
L 4281 4097 
L 3078 897 
L 2444 897 
L 1241 4097 
L 1241 0 
L 628 0 
L 628 4666 
z
" transform="scale(0.015625)"/>
     </defs>
     <use xlink:href="#DejaVuSans-54"/>
     <use xlink:href="#DejaVuSans-4d" x="61.083984"/>
    </g>
   </g>
   <g id="text_9">
    <g id="patch_35">
     <path d="M 266.824875 179.212145 
L 346.062688 179.212145 
Q 349.362688 179.212145 349.362688 175.912145 
L 349.362688 165.266208 
Q 349.362688 161.966208 346.062688 161.966208 
L 266.824875 161.966208 
Q 263.524875 161.966208 263.524875 165.266208 
L 263.524875 175.912145 
Q 263.524875 179.212145 266.824875 179.212145 
z
" style="fill: #fff1e6; stroke: #808080; stroke-linejoin: miter"/>
    </g>
    <!-- DELV143-Y145 -->
    <g style="fill: #262626" transform="translate(266.824875 173.624489)scale(0.11 -0.11)">
     <defs>
      <path id="DejaVuSans-45" d="M 628 4666 
L 3578 4666 
L 3578 4134 
L 1259 4134 
L 1259 2753 
L 3481 2753 
L 3481 2222 
L 1259 2222 
L 1259 531 
L 3634 531 
L 3634 0 
L 628 0 
L 628 4666 
z
" transform="scale(0.015625)"/>
      <path id="DejaVuSans-4c" d="M 628 4666 
L 1259 4666 
L 1259 531 
L 3531 531 
L 3531 0 
L 628 0 
L 628 4666 
z
" transform="scale(0.015625)"/>
      <path id="DejaVuSans-56" d="M 1831 0 
L 50 4666 
L 709 4666 
L 2188 738 
L 3669 4666 
L 4325 4666 
L 2547 0 
L 1831 0 
z
" transform="scale(0.015625)"/>
      <path id="DejaVuSans-31" d="M 794 531 
L 1825 531 
L 1825 4091 
L 703 3866 
L 703 4441 
L 1819 4666 
L 2450 4666 
L 2450 531 
L 3481 531 
L 3481 0 
L 794 0 
L 794 531 
z
" transform="scale(0.015625)"/>
      <path id="DejaVuSans-34" d="M 2419 4116 
L 825 1625 
L 2419 1625 
L 2419 4116 
z
M 2253 4666 
L 3047 4666 
L 3047 1625 
L 3713 1625 
L 3713 1100 
L 3047 1100 
L 3047 0 
L 2419 0 
L 2419 1100 
L 313 1100 
L 313 1709 
L 2253 4666 
z
" transform="scale(0.015625)"/>
      <path id="DejaVuSans-33" d="M 2597 2516 
Q 3050 2419 3304 2112 
Q 3559 1806 3559 1356 
Q 3559 666 3084 287 
Q 2609 -91 1734 -91 
Q 1441 -91 1130 -33 
Q 819 25 488 141 
L 488 750 
Q 750 597 1062 519 
Q 1375 441 1716 441 
Q 2309 441 2620 675 
Q 2931 909 2931 1356 
Q 2931 1769 2642 2001 
Q 2353 2234 1838 2234 
L 1294 2234 
L 1294 2753 
L 1863 2753 
Q 2328 2753 2575 2939 
Q 2822 3125 2822 3475 
Q 2822 3834 2567 4026 
Q 2313 4219 1838 4219 
Q 1578 4219 1281 4162 
Q 984 4106 628 3988 
L 628 4550 
Q 988 4650 1302 4700 
Q 1616 4750 1894 4750 
Q 2613 4750 3031 4423 
Q 3450 4097 3450 3541 
Q 3450 3153 3228 2886 
Q 3006 2619 2597 2516 
z
" transform="scale(0.015625)"/>
      <path id="DejaVuSans-2d" d="M 313 2009 
L 1997 2009 
L 1997 1497 
L 313 1497 
L 313 2009 
z
" transform="scale(0.015625)"/>
      <path id="DejaVuSans-59" d="M -13 4666 
L 666 4666 
L 1959 2747 
L 3244 4666 
L 3922 4666 
L 2272 2222 
L 2272 0 
L 1638 0 
L 1638 2222 
L -13 4666 
z
" transform="scale(0.015625)"/>
      <path id="DejaVuSans-35" d="M 691 4666 
L 3169 4666 
L 3169 4134 
L 1269 4134 
L 1269 2991 
Q 1406 3038 1543 3061 
Q 1681 3084 1819 3084 
Q 2600 3084 3056 2656 
Q 3513 2228 3513 1497 
Q 3513 744 3044 326 
Q 2575 -91 1722 -91 
Q 1428 -91 1123 -41 
Q 819 9 494 109 
L 494 744 
Q 775 591 1075 516 
Q 1375 441 1709 441 
Q 2250 441 2565 725 
Q 2881 1009 2881 1497 
Q 2881 1984 2565 2268 
Q 2250 2553 1709 2553 
Q 1456 2553 1204 2497 
Q 953 2441 691 2322 
L 691 4666 
z
" transform="scale(0.015625)"/>
     </defs>
     <use xlink:href="#DejaVuSans-44"/>
     <use xlink:href="#DejaVuSans-45" x="77.001953"/>
     <use xlink:href="#DejaVuSans-4c" x="140.185547"/>
     <use xlink:href="#DejaVuSans-56" x="184.898438"/>
     <use xlink:href="#DejaVuSans-31" x="253.306641"/>
     <use xlink:href="#DejaVuSans-34" x="316.929688"/>
     <use xlink:href="#DejaVuSans-33" x="380.552734"/>
     <use xlink:href="#DejaVuSans-2d" x="444.175781"/>
     <use xlink:href="#DejaVuSans-59" x="468.384766"/>
     <use xlink:href="#DejaVuSans-31" x="529.46875"/>
     <use xlink:href="#DejaVuSans-34" x="593.091797"/>
     <use xlink:href="#DejaVuSans-35" x="656.714844"/>
    </g>
   </g>
   <g id="text_10">
    <g id="patch_36">
     <path d="M 740.759058 206.072381 
L 821.114058 206.072381 
Q 824.414058 206.072381 824.414058 202.772381 
L 824.414058 192.126443 
Q 824.414058 188.826443 821.114058 188.826443 
L 740.759058 188.826443 
Q 737.459058 188.826443 737.459058 192.126443 
L 737.459058 202.772381 
Q 737.459058 206.072381 740.759058 206.072381 
z
" style="fill: #e6f6ff; stroke: #808080; stroke-linejoin: miter"/>
    </g>
    <!-- Furin cleavage -->
    <g style="fill: #262626" transform="translate(740.759058 200.484724)scale(0.11 -0.11)">
     <defs>
      <path id="DejaVuSans-72" d="M 2631 2963 
Q 2534 3019 2420 3045 
Q 2306 3072 2169 3072 
Q 1681 3072 1420 2755 
Q 1159 2438 1159 1844 
L 1159 0 
L 581 0 
L 581 3500 
L 1159 3500 
L 1159 2956 
Q 1341 3275 1631 3429 
Q 1922 3584 2338 3584 
Q 2397 3584 2469 3576 
Q 2541 3569 2628 3553 
L 2631 2963 
z
" transform="scale(0.015625)"/>
      <path id="DejaVuSans-20" transform="scale(0.015625)"/>
      <path id="DejaVuSans-63" d="M 3122 3366 
L 3122 2828 
Q 2878 2963 2633 3030 
Q 2388 3097 2138 3097 
Q 1578 3097 1268 2742 
Q 959 2388 959 1747 
Q 959 1106 1268 751 
Q 1578 397 2138 397 
Q 2388 397 2633 464 
Q 2878 531 3122 666 
L 3122 134 
Q 2881 22 2623 -34 
Q 2366 -91 2075 -91 
Q 1284 -91 818 406 
Q 353 903 353 1747 
Q 353 2603 823 3093 
Q 1294 3584 2113 3584 
Q 2378 3584 2631 3529 
Q 2884 3475 3122 3366 
z
" transform="scale(0.015625)"/>
      <path id="DejaVuSans-6c" d="M 603 4863 
L 1178 4863 
L 1178 0 
L 603 0 
L 603 4863 
z
" transform="scale(0.015625)"/>
      <path id="DejaVuSans-76" d="M 191 3500 
L 800 3500 
L 1894 563 
L 2988 3500 
L 3597 3500 
L 2284 0 
L 1503 0 
L 191 3500 
z
" transform="scale(0.015625)"/>
      <path id="DejaVuSans-67" d="M 2906 1791 
Q 2906 2416 2648 2759 
Q 2391 3103 1925 3103 
Q 1463 3103 1205 2759 
Q 947 2416 947 1791 
Q 947 1169 1205 825 
Q 1463 481 1925 481 
Q 2391 481 2648 825 
Q 2906 1169 2906 1791 
z
M 3481 434 
Q 3481 -459 3084 -895 
Q 2688 -1331 1869 -1331 
Q 1566 -1331 1297 -1286 
Q 1028 -1241 775 -1147 
L 775 -588 
Q 1028 -725 1275 -790 
Q 1522 -856 1778 -856 
Q 2344 -856 2625 -561 
Q 2906 -266 2906 331 
L 2906 616 
Q 2728 306 2450 153 
Q 2172 0 1784 0 
Q 1141 0 747 490 
Q 353 981 353 1791 
Q 353 2603 747 3093 
Q 1141 3584 1784 3584 
Q 2172 3584 2450 3431 
Q 2728 3278 2906 2969 
L 2906 3500 
L 3481 3500 
L 3481 434 
z
" transform="scale(0.015625)"/>
     </defs>
     <use xlink:href="#DejaVuSans-46"/>
     <use xlink:href="#DejaVuSans-75" x="52.019531"/>
     <use xlink:href="#DejaVuSans-72" x="115.398438"/>
     <use xlink:href="#DejaVuSans-69" x="156.511719"/>
     <use xlink:href="#DejaVuSans-6e" x="184.294922"/>
     <use xlink:href="#DejaVuSans-20" x="247.673828"/>
     <use xlink:href="#DejaVuSans-63" x="279.460938"/>
     <use xlink:href="#DejaVuSans-6c" x="334.441406"/>
     <use xlink:href="#DejaVuSans-65" x="362.224609"/>
     <use xlink:href="#DejaVuSans-61" x="423.748047"/>
     <use xlink:href="#DejaVuSans-76" x="485.027344"/>
     <use xlink:href="#DejaVuSans-61" x="544.207031"/>
     <use xlink:href="#DejaVuSans-67" x="605.486328"/>
     <use xlink:href="#DejaVuSans-65" x="668.962891"/>
    </g>
   </g>
   <g id="text_11">
    <g id="patch_37">
     <path d="M 187.559968 71.771204 
L 211.521062 71.771204 
Q 214.821062 71.771204 214.821062 68.471204 
L 214.821062 57.825267 
Q 214.821062 54.525267 211.521062 54.525267 
L 187.559968 54.525267 
Q 184.259968 54.525267 184.259968 57.825267 
L 184.259968 68.471204 
Q 184.259968 71.771204 187.559968 71.771204 
z
" style="fill: #efeef6; stroke: #808080; stroke-linejoin: miter"/>
    </g>
    <!-- T22I -->
    <g style="fill: #262626" transform="translate(187.559968 66.183548)scale(0.11 -0.11)">
     <defs>
      <path id="DejaVuSans-32" d="M 1228 531 
L 3431 531 
L 3431 0 
L 469 0 
L 469 531 
Q 828 903 1448 1529 
Q 2069 2156 2228 2338 
Q 2531 2678 2651 2914 
Q 2772 3150 2772 3378 
Q 2772 3750 2511 3984 
Q 2250 4219 1831 4219 
Q 1534 4219 1204 4116 
Q 875 4013 500 3803 
L 500 4441 
Q 881 4594 1212 4672 
Q 1544 4750 1819 4750 
Q 2544 4750 2975 4387 
Q 3406 4025 3406 3419 
Q 3406 3131 3298 2873 
Q 3191 2616 2906 2266 
Q 2828 2175 2409 1742 
Q 1991 1309 1228 531 
z
" transform="scale(0.015625)"/>
      <path id="DejaVuSans-49" d="M 628 4666 
L 1259 4666 
L 1259 0 
L 628 0 
L 628 4666 
z
" transform="scale(0.015625)"/>
     </defs>
     <use xlink:href="#DejaVuSans-54"/>
     <use xlink:href="#DejaVuSans-32" x="61.083984"/>
     <use xlink:href="#DejaVuSans-32" x="124.707031"/>
     <use xlink:href="#DejaVuSans-49" x="188.330078"/>
    </g>
   </g>
   <g id="text_12">
    <g id="patch_38">
     <path d="M 194.977609 125.491675 
L 221.628547 125.491675 
Q 224.928547 125.491675 224.928547 122.191675 
L 224.928547 111.545737 
Q 224.928547 108.245737 221.628547 108.245737 
L 194.977609 108.245737 
Q 191.677609 108.245737 191.677609 111.545737 
L 191.677609 122.191675 
Q 191.677609 125.491675 194.977609 125.491675 
z
" style="fill: #efeef6; stroke: #808080; stroke-linejoin: miter"/>
    </g>
    <!-- F32F -->
    <g style="fill: #262626" transform="translate(194.977609 119.904018)scale(0.11 -0.11)">
     <use xlink:href="#DejaVuSans-46"/>
     <use xlink:href="#DejaVuSans-33" x="57.519531"/>
     <use xlink:href="#DejaVuSans-32" x="121.142578"/>
     <use xlink:href="#DejaVuSans-46" x="184.765625"/>
    </g>
   </g>
   <g id="text_13">
    <g id="patch_39">
     <path d="M 204.616428 152.35191 
L 231.267366 152.35191 
Q 234.567366 152.35191 234.567366 149.05191 
L 234.567366 138.405972 
Q 234.567366 135.105972 231.267366 135.105972 
L 204.616428 135.105972 
Q 201.316428 135.105972 201.316428 138.405972 
L 201.316428 149.05191 
Q 201.316428 152.35191 204.616428 152.35191 
z
" style="fill: #efeef6; stroke: #808080; stroke-linejoin: miter"/>
    </g>
    <!-- F43F -->
    <g style="fill: #262626" transform="translate(204.616428 146.764254)scale(0.11 -0.11)">
     <use xlink:href="#DejaVuSans-46"/>
     <use xlink:href="#DejaVuSans-34" x="57.519531"/>
     <use xlink:href="#DejaVuSans-33" x="121.142578"/>
     <use xlink:href="#DejaVuSans-46" x="184.765625"/>
    </g>
   </g>
   <g id="text_14">
    <g id="patch_40">
     <path d="M 208.705216 179.212145 
L 237.693653 179.212145 
Q 240.993653 179.212145 240.993653 175.912145 
L 240.993653 165.266208 
Q 240.993653 161.966208 237.693653 161.966208 
L 208.705216 161.966208 
Q 205.405216 161.966208 205.405216 165.266208 
L 205.405216 175.912145 
Q 205.405216 179.212145 208.705216 179.212145 
z
" style="fill: #fff1e6; stroke: #808080; stroke-linejoin: miter"/>
    </g>
    <!-- H49Y -->
    <g style="fill: #262626" transform="translate(208.705216 173.624489)scale(0.11 -0.11)">
     <defs>
      <path id="DejaVuSans-39" d="M 703 97 
L 703 672 
Q 941 559 1184 500 
Q 1428 441 1663 441 
Q 2288 441 2617 861 
Q 2947 1281 2994 2138 
Q 2813 1869 2534 1725 
Q 2256 1581 1919 1581 
Q 1219 1581 811 2004 
Q 403 2428 403 3163 
Q 403 3881 828 4315 
Q 1253 4750 1959 4750 
Q 2769 4750 3195 4129 
Q 3622 3509 3622 2328 
Q 3622 1225 3098 567 
Q 2575 -91 1691 -91 
Q 1453 -91 1209 -44 
Q 966 3 703 97 
z
M 1959 2075 
Q 2384 2075 2632 2365 
Q 2881 2656 2881 3163 
Q 2881 3666 2632 3958 
Q 2384 4250 1959 4250 
Q 1534 4250 1286 3958 
Q 1038 3666 1038 3163 
Q 1038 2656 1286 2365 
Q 1534 2075 1959 2075 
z
" transform="scale(0.015625)"/>
     </defs>
     <use xlink:href="#DejaVuSans-48"/>
     <use xlink:href="#DejaVuSans-34" x="75.195312"/>
     <use xlink:href="#DejaVuSans-39" x="138.818359"/>
     <use xlink:href="#DejaVuSans-59" x="202.441406"/>
    </g>
   </g>
   <g id="text_15">
    <g id="patch_41">
     <path d="M 215.131504 98.631439 
L 241.782441 98.631439 
Q 245.082441 98.631439 245.082441 95.331439 
L 245.082441 84.685502 
Q 245.082441 81.385502 241.782441 81.385502 
L 215.131504 81.385502 
Q 211.831504 81.385502 211.831504 84.685502 
L 211.831504 95.331439 
Q 211.831504 98.631439 215.131504 98.631439 
z
" style="fill: #fff1e6; stroke: #808080; stroke-linejoin: miter"/>
    </g>
    <!-- F55F -->
    <g style="fill: #262626" transform="translate(215.131504 93.043783)scale(0.11 -0.11)">
     <use xlink:href="#DejaVuSans-46"/>
     <use xlink:href="#DejaVuSans-35" x="57.519531"/>
     <use xlink:href="#DejaVuSans-35" x="121.142578"/>
     <use xlink:href="#DejaVuSans-46" x="184.765625"/>
    </g>
   </g>
   <g id="text_16">
    <g id="patch_42">
     <path d="M 251.526677 152.35191 
L 275.48777 152.35191 
Q 278.78777 152.35191 278.78777 149.05191 
L 278.78777 138.405972 
Q 278.78777 135.105972 275.48777 135.105972 
L 251.526677 135.105972 
Q 248.226677 135.105972 248.226677 138.405972 
L 248.226677 149.05191 
Q 248.226677 152.35191 251.526677 152.35191 
z
" style="fill: #fff1e6; stroke: #808080; stroke-linejoin: miter"/>
    </g>
    <!-- T95I -->
    <g style="fill: #262626" transform="translate(251.526677 146.764254)scale(0.11 -0.11)">
     <use xlink:href="#DejaVuSans-54"/>
     <use xlink:href="#DejaVuSans-39" x="61.083984"/>
     <use xlink:href="#DejaVuSans-35" x="124.707031"/>
     <use xlink:href="#DejaVuSans-49" x="188.330078"/>
    </g>
   </g>
   <g id="text_17">
    <g id="patch_43">
     <path d="M 378.446772 179.212145 
L 414.949585 179.212145 
Q 418.249585 179.212145 418.249585 175.912145 
L 418.249585 165.266208 
Q 418.249585 161.966208 414.949585 161.966208 
L 378.446772 161.966208 
Q 375.146772 161.966208 375.146772 165.266208 
L 375.146772 175.912145 
Q 375.146772 179.212145 378.446772 179.212145 
z
" style="fill: #efeef6; stroke: #808080; stroke-linejoin: miter"/>
    </g>
    <!-- S247G -->
    <g style="fill: #262626" transform="translate(378.446772 173.624489)scale(0.11 -0.11)">
     <defs>
      <path id="DejaVuSans-37" d="M 525 4666 
L 3525 4666 
L 3525 4397 
L 1831 0 
L 1172 0 
L 2766 4134 
L 525 4134 
L 525 4666 
z
" transform="scale(0.015625)"/>
      <path id="DejaVuSans-47" d="M 3809 666 
L 3809 1919 
L 2778 1919 
L 2778 2438 
L 4434 2438 
L 4434 434 
Q 4069 175 3628 42 
Q 3188 -91 2688 -91 
Q 1594 -91 976 548 
Q 359 1188 359 2328 
Q 359 3472 976 4111 
Q 1594 4750 2688 4750 
Q 3144 4750 3555 4637 
Q 3966 4525 4313 4306 
L 4313 3634 
Q 3963 3931 3569 4081 
Q 3175 4231 2741 4231 
Q 1884 4231 1454 3753 
Q 1025 3275 1025 2328 
Q 1025 1384 1454 906 
Q 1884 428 2741 428 
Q 3075 428 3337 486 
Q 3600 544 3809 666 
z
" transform="scale(0.015625)"/>
     </defs>
     <use xlink:href="#DejaVuSans-53"/>
     <use xlink:href="#DejaVuSans-32" x="63.476562"/>
     <use xlink:href="#DejaVuSans-34" x="127.099609"/>
     <use xlink:href="#DejaVuSans-37" x="190.722656"/>
     <use xlink:href="#DejaVuSans-47" x="254.345703"/>
    </g>
   </g>
   <g id="text_18">
    <g id="patch_44">
     <path d="M 431.572455 206.072381 
L 465.222143 206.072381 
Q 468.522143 206.072381 468.522143 202.772381 
L 468.522143 192.126443 
Q 468.522143 188.826443 465.222143 188.826443 
L 431.572455 188.826443 
Q 428.272455 188.826443 428.272455 192.126443 
L 428.272455 202.772381 
Q 428.272455 206.072381 431.572455 206.072381 
z
" style="fill: #efeef6; stroke: #808080; stroke-linejoin: miter"/>
    </g>
    <!-- F306F -->
    <g style="fill: #262626" transform="translate(431.572455 200.484724)scale(0.11 -0.11)">
     <defs>
      <path id="DejaVuSans-30" d="M 2034 4250 
Q 1547 4250 1301 3770 
Q 1056 3291 1056 2328 
Q 1056 1369 1301 889 
Q 1547 409 2034 409 
Q 2525 409 2770 889 
Q 3016 1369 3016 2328 
Q 3016 3291 2770 3770 
Q 2525 4250 2034 4250 
z
M 2034 4750 
Q 2819 4750 3233 4129 
Q 3647 3509 3647 2328 
Q 3647 1150 3233 529 
Q 2819 -91 2034 -91 
Q 1250 -91 836 529 
Q 422 1150 422 2328 
Q 422 3509 836 4129 
Q 1250 4750 2034 4750 
z
" transform="scale(0.015625)"/>
      <path id="DejaVuSans-36" d="M 2113 2584 
Q 1688 2584 1439 2293 
Q 1191 2003 1191 1497 
Q 1191 994 1439 701 
Q 1688 409 2113 409 
Q 2538 409 2786 701 
Q 3034 994 3034 1497 
Q 3034 2003 2786 2293 
Q 2538 2584 2113 2584 
z
M 3366 4563 
L 3366 3988 
Q 3128 4100 2886 4159 
Q 2644 4219 2406 4219 
Q 1781 4219 1451 3797 
Q 1122 3375 1075 2522 
Q 1259 2794 1537 2939 
Q 1816 3084 2150 3084 
Q 2853 3084 3261 2657 
Q 3669 2231 3669 1497 
Q 3669 778 3244 343 
Q 2819 -91 2113 -91 
Q 1303 -91 875 529 
Q 447 1150 447 2328 
Q 447 3434 972 4092 
Q 1497 4750 2381 4750 
Q 2619 4750 2861 4703 
Q 3103 4656 3366 4563 
z
" transform="scale(0.015625)"/>
     </defs>
     <use xlink:href="#DejaVuSans-46"/>
     <use xlink:href="#DejaVuSans-33" x="57.519531"/>
     <use xlink:href="#DejaVuSans-30" x="121.142578"/>
     <use xlink:href="#DejaVuSans-36" x="184.765625"/>
     <use xlink:href="#DejaVuSans-46" x="248.388672"/>
    </g>
   </g>
   <g id="text_19">
    <g id="patch_45">
     <path d="M 589.397414 152.35191 
L 622.849445 152.35191 
Q 626.149445 152.35191 626.149445 149.05191 
L 626.149445 138.405972 
Q 626.149445 135.105972 622.849445 135.105972 
L 589.397414 135.105972 
Q 586.097414 135.105972 586.097414 138.405972 
L 586.097414 149.05191 
Q 586.097414 152.35191 589.397414 152.35191 
z
" style="fill: #fff1e6; stroke: #808080; stroke-linejoin: miter"/>
    </g>
    <!-- F486L -->
    <g style="fill: #262626" transform="translate(589.397414 146.764254)scale(0.11 -0.11)">
     <defs>
      <path id="DejaVuSans-38" d="M 2034 2216 
Q 1584 2216 1326 1975 
Q 1069 1734 1069 1313 
Q 1069 891 1326 650 
Q 1584 409 2034 409 
Q 2484 409 2743 651 
Q 3003 894 3003 1313 
Q 3003 1734 2745 1975 
Q 2488 2216 2034 2216 
z
M 1403 2484 
Q 997 2584 770 2862 
Q 544 3141 544 3541 
Q 544 4100 942 4425 
Q 1341 4750 2034 4750 
Q 2731 4750 3128 4425 
Q 3525 4100 3525 3541 
Q 3525 3141 3298 2862 
Q 3072 2584 2669 2484 
Q 3125 2378 3379 2068 
Q 3634 1759 3634 1313 
Q 3634 634 3220 271 
Q 2806 -91 2034 -91 
Q 1263 -91 848 271 
Q 434 634 434 1313 
Q 434 1759 690 2068 
Q 947 2378 1403 2484 
z
M 1172 3481 
Q 1172 3119 1398 2916 
Q 1625 2713 2034 2713 
Q 2441 2713 2670 2916 
Q 2900 3119 2900 3481 
Q 2900 3844 2670 4047 
Q 2441 4250 2034 4250 
Q 1625 4250 1398 4047 
Q 1172 3844 1172 3481 
z
" transform="scale(0.015625)"/>
     </defs>
     <use xlink:href="#DejaVuSans-46"/>
     <use xlink:href="#DejaVuSans-34" x="57.519531"/>
     <use xlink:href="#DejaVuSans-38" x="121.142578"/>
     <use xlink:href="#DejaVuSans-36" x="184.765625"/>
     <use xlink:href="#DejaVuSans-4c" x="248.388672"/>
    </g>
   </g>
   <g id="text_20">
    <g id="patch_46">
     <path d="M 601.295164 179.212145 
L 637.239383 179.212145 
Q 640.539383 179.212145 640.539383 175.912145 
L 640.539383 165.266208 
Q 640.539383 161.966208 637.239383 161.966208 
L 601.295164 161.966208 
Q 597.995164 161.966208 597.995164 165.266208 
L 597.995164 175.912145 
Q 597.995164 179.212145 601.295164 179.212145 
z
" style="fill: #fff1e6; stroke: #808080; stroke-linejoin: miter"/>
    </g>
    <!-- N501T -->
    <g style="fill: #262626" transform="translate(601.295164 173.624489)scale(0.11 -0.11)">
     <use xlink:href="#DejaVuSans-4e"/>
     <use xlink:href="#DejaVuSans-35" x="74.804688"/>
     <use xlink:href="#DejaVuSans-30" x="138.427734"/>
     <use xlink:href="#DejaVuSans-31" x="202.050781"/>
     <use xlink:href="#DejaVuSans-54" x="265.673828"/>
    </g>
   </g>
   <g id="text_21">
    <g id="patch_47">
     <path d="M 699.315002 125.491675 
L 733.74844 125.491675 
Q 737.04844 125.491675 737.04844 122.191675 
L 737.04844 111.545737 
Q 737.04844 108.245737 733.74844 108.245737 
L 699.315002 108.245737 
Q 696.015002 108.245737 696.015002 111.545737 
L 696.015002 122.191675 
Q 696.015002 125.491675 699.315002 125.491675 
z
" style="fill: #fff1e6; stroke: #808080; stroke-linejoin: miter"/>
    </g>
    <!-- Y612Y -->
    <g style="fill: #262626" transform="translate(699.315002 119.904018)scale(0.11 -0.11)">
     <use xlink:href="#DejaVuSans-59"/>
     <use xlink:href="#DejaVuSans-36" x="61.083984"/>
     <use xlink:href="#DejaVuSans-31" x="124.707031"/>
     <use xlink:href="#DejaVuSans-32" x="188.330078"/>
     <use xlink:href="#DejaVuSans-59" x="251.953125"/>
    </g>
   </g>
   <g id="text_22">
    <g id="patch_48">
     <path d="M 698.444149 179.212145 
L 736.371806 179.212145 
Q 739.671806 179.212145 739.671806 175.912145 
L 739.671806 165.266208 
Q 739.671806 161.966208 736.371806 161.966208 
L 698.444149 161.966208 
Q 695.144149 161.966208 695.144149 165.266208 
L 695.144149 175.912145 
Q 695.144149 179.212145 698.444149 179.212145 
z
" style="fill: #fff8e6; stroke: #808080; stroke-linejoin: miter"/>
    </g>
    <!-- Q613H -->
    <g style="fill: #262626" transform="translate(698.444149 173.624489)scale(0.11 -0.11)">
     <defs>
      <path id="DejaVuSans-51" d="M 2522 4238 
Q 1834 4238 1429 3725 
Q 1025 3213 1025 2328 
Q 1025 1447 1429 934 
Q 1834 422 2522 422 
Q 3209 422 3611 934 
Q 4013 1447 4013 2328 
Q 4013 3213 3611 3725 
Q 3209 4238 2522 4238 
z
M 3406 84 
L 4238 -825 
L 3475 -825 
L 2784 -78 
Q 2681 -84 2626 -87 
Q 2572 -91 2522 -91 
Q 1538 -91 948 567 
Q 359 1225 359 2328 
Q 359 3434 948 4092 
Q 1538 4750 2522 4750 
Q 3503 4750 4090 4092 
Q 4678 3434 4678 2328 
Q 4678 1516 4351 937 
Q 4025 359 3406 84 
z
" transform="scale(0.015625)"/>
     </defs>
     <use xlink:href="#DejaVuSans-51"/>
     <use xlink:href="#DejaVuSans-36" x="78.710938"/>
     <use xlink:href="#DejaVuSans-31" x="142.333984"/>
     <use xlink:href="#DejaVuSans-33" x="205.957031"/>
     <use xlink:href="#DejaVuSans-48" x="269.580078"/>
    </g>
   </g>
   <g id="text_23">
    <g id="patch_49">
     <path d="M 699.289468 152.35191 
L 737.278999 152.35191 
Q 740.578999 152.35191 740.578999 149.05191 
L 740.578999 138.405972 
Q 740.578999 135.105972 737.278999 135.105972 
L 699.289468 135.105972 
Q 695.989468 135.105972 695.989468 138.405972 
L 695.989468 149.05191 
Q 695.989468 152.35191 699.289468 152.35191 
z
" style="fill: #fff1e6; stroke: #808080; stroke-linejoin: miter"/>
    </g>
    <!-- D614G -->
    <g style="fill: #262626" transform="translate(699.289468 146.764254)scale(0.11 -0.11)">
     <use xlink:href="#DejaVuSans-44"/>
     <use xlink:href="#DejaVuSans-36" x="77.001953"/>
     <use xlink:href="#DejaVuSans-31" x="140.625"/>
     <use xlink:href="#DejaVuSans-34" x="204.248047"/>
     <use xlink:href="#DejaVuSans-47" x="267.871094"/>
    </g>
   </g>
   <g id="text_24">
    <g id="patch_50">
     <path d="M 780.000743 179.212145 
L 816.046368 179.212145 
Q 819.346368 179.212145 819.346368 175.912145 
L 819.346368 165.266208 
Q 819.346368 161.966208 816.046368 161.966208 
L 780.000743 161.966208 
Q 776.700743 161.966208 776.700743 165.266208 
L 776.700743 175.912145 
Q 776.700743 179.212145 780.000743 179.212145 
z
" style="fill: #efeef6; stroke: #808080; stroke-linejoin: miter"/>
    </g>
    <!-- V705A -->
    <g style="fill: #262626" transform="translate(780.000743 173.624489)scale(0.11 -0.11)">
     <defs>
      <path id="DejaVuSans-41" d="M 2188 4044 
L 1331 1722 
L 3047 1722 
L 2188 4044 
z
M 1831 4666 
L 2547 4666 
L 4325 0 
L 3669 0 
L 3244 1197 
L 1141 1197 
L 716 0 
L 50 0 
L 1831 4666 
z
" transform="scale(0.015625)"/>
     </defs>
     <use xlink:href="#DejaVuSans-56"/>
     <use xlink:href="#DejaVuSans-37" x="68.408203"/>
     <use xlink:href="#DejaVuSans-30" x="132.03125"/>
     <use xlink:href="#DejaVuSans-35" x="195.654297"/>
     <use xlink:href="#DejaVuSans-41" x="259.277344"/>
    </g>
   </g>
   <g id="text_25">
    <g id="patch_51">
     <path d="M 839.328051 206.072381 
L 877.642426 206.072381 
Q 880.942426 206.072381 880.942426 202.772381 
L 880.942426 192.126443 
Q 880.942426 188.826443 877.642426 188.826443 
L 839.328051 188.826443 
Q 836.028051 188.826443 836.028051 192.126443 
L 836.028051 202.772381 
Q 836.028051 206.072381 839.328051 206.072381 
z
" style="fill: #efeef6; stroke: #808080; stroke-linejoin: miter"/>
    </g>
    <!-- Q774Q -->
    <g style="fill: #262626" transform="translate(839.328051 200.484724)scale(0.11 -0.11)">
     <use xlink:href="#DejaVuSans-51"/>
     <use xlink:href="#DejaVuSans-37" x="78.710938"/>
     <use xlink:href="#DejaVuSans-37" x="142.333984"/>
     <use xlink:href="#DejaVuSans-34" x="205.957031"/>
     <use xlink:href="#DejaVuSans-51" x="269.580078"/>
    </g>
   </g>
   <g id="text_26">
    <g id="patch_52">
     <path d="M 883.918353 125.491675 
L 917.172728 125.491675 
Q 920.472728 125.491675 920.472728 122.191675 
L 920.472728 111.545737 
Q 920.472728 108.245737 917.172728 108.245737 
L 883.918353 108.245737 
Q 880.618353 108.245737 880.618353 111.545737 
L 880.618353 122.191675 
Q 880.618353 125.491675 883.918353 125.491675 
z
" style="fill: #fff1e6; stroke: #808080; stroke-linejoin: miter"/>
    </g>
    <!-- L822L -->
    <g style="fill: #262626" transform="translate(883.918353 119.904018)scale(0.11 -0.11)">
     <use xlink:href="#DejaVuSans-4c"/>
     <use xlink:href="#DejaVuSans-38" x="55.712891"/>
     <use xlink:href="#DejaVuSans-32" x="119.335938"/>
     <use xlink:href="#DejaVuSans-32" x="182.958984"/>
     <use xlink:href="#DejaVuSans-4c" x="246.582031"/>
    </g>
   </g>
   <g id="text_27">
    <g id="patch_53">
     <path d="M 998.723276 179.212145 
L 1042.462026 179.212145 
Q 1045.762026 179.212145 1045.762026 175.912145 
L 1045.762026 165.266208 
Q 1045.762026 161.966208 1042.462026 161.966208 
L 998.723276 161.966208 
Q 995.423276 161.966208 995.423276 165.266208 
L 995.423276 175.912145 
Q 995.423276 179.212145 998.723276 179.212145 
z
" style="fill: #efeef6; stroke: #808080; stroke-linejoin: miter"/>
    </g>
    <!-- L959 FS -->
    <g style="fill: #262626" transform="translate(998.723276 173.624489)scale(0.11 -0.11)">
     <use xlink:href="#DejaVuSans-4c"/>
     <use xlink:href="#DejaVuSans-39" x="55.712891"/>
     <use xlink:href="#DejaVuSans-35" x="119.335938"/>
     <use xlink:href="#DejaVuSans-39" x="182.958984"/>
     <use xlink:href="#DejaVuSans-20" x="246.582031"/>
     <use xlink:href="#DejaVuSans-46" x="278.369141"/>
     <use xlink:href="#DejaVuSans-53" x="334.138672"/>
    </g>
   </g>
   <g id="text_28">
    <g id="patch_54">
     <path d="M 1270.042542 206.072381 
L 1307.411604 206.072381 
Q 1310.711604 206.072381 1310.711604 202.772381 
L 1310.711604 192.126443 
Q 1310.711604 188.826443 1307.411604 188.826443 
L 1270.042542 188.826443 
Q 1266.742542 188.826443 1266.742542 192.126443 
L 1266.742542 202.772381 
Q 1266.742542 206.072381 1270.042542 206.072381 
z
" style="fill: #fff8e6; stroke: #808080; stroke-linejoin: miter"/>
    </g>
    <!-- L1265I -->
    <g style="fill: #262626" transform="translate(1270.042542 200.484724)scale(0.11 -0.11)">
     <use xlink:href="#DejaVuSans-4c"/>
     <use xlink:href="#DejaVuSans-31" x="55.712891"/>
     <use xlink:href="#DejaVuSans-32" x="119.335938"/>
     <use xlink:href="#DejaVuSans-36" x="182.958984"/>
     <use xlink:href="#DejaVuSans-35" x="246.582031"/>
     <use xlink:href="#DejaVuSans-49" x="310.205078"/>
    </g>
   </g>
  </g>
 </g>
 <defs>
  <clipPath id="p0c5b85d72d">
   <rect x="180" y="36.288" width="1116" height="228.312"/>
  </clipPath>
 </defs>
</svg>
